<?xml version="1.0" encoding="UTF-8" standalone="no"?>
<svg xmlns="http://www.w3.org/2000/svg"
    xmlns:xlink="http://www.w3.org/1999/xlink">
    <defs><svg version="1.0" xml:space="preserve" viewBox="0 0 31.7 31.7" id="s0" xmlns="http://www.w3.org/2000/svg">
            <path style="fill:#924716" d="M27.6 27.2H5.7V1h21.9v5.9z" transform="translate(0 1.65)" />
            <path style="fill:#793812" d="M25.7 27.2V2.6L27.6 1v26.2z" transform="translate(0 1.65)" />
            <path style="fill:#9f5326" d="M3.5 1h23.8l-1.9 1.6H3.5z" transform="translate(0 1.65)" />
            <path style="fill:#80b5e3"
                d="M30.5 21.1 29 23.6l2.7 4.8-4.1-1.2H3.7V1h4.8l4.1 3.2 4-1.6 2.5 3.1 4.7-.8 1.9 5.8 1.9 7.4zM0 28.4l3.7-1.2V1L0 0l1.9 4.2L0 7.5l1.9 3.3L0 14.1l1.9 3.2L0 20.6l1.9 3.3z"
                transform="translate(0 1.65)" />
            <path style="opacity:.2;fill:#fff" d="M3.5 1h4.8l2.1 1.6h-5z" transform="translate(0 1.65)" />
            <g transform="translate(0 1.65)">
                <path
                    d="M18.3 13.7c-.7.6-2.5 1.9-4.4 2.3-2.3.5-3.6-1.4-3.1-3.2.5-2.1 2.8-3.7 4.8-3 .9.3.6 1.5.3 2.1-.8 1.5.3 1.7.8 1.2 1.5-1.6 2.4-4.3-.2-5.3-4-1.5-7.3 2.2-8.4 5.2-1.7 4.8 2.4 9 7.1 5.8 1.2-.8 2.6-2.2 3.5-3.4.8-1.2.3-2.3-.4-1.7z"
                    style="fill:#924716" />
                <ellipse transform="rotate(-45.009 22.435 11.483)" cx="22.4" cy="11.5" rx="1.6" ry="1.1"
                    style="fill:#924716" />
                <ellipse transform="rotate(-45.009 21.873 15.833)" cx="21.9" cy="15.8" rx="1.6" ry="1.1"
                    style="fill:#924716" />
            </g>
            <path style="opacity:.2;fill:#fff" d="m3.7 1 2 1.6v22.9l-2 1.7z" transform="translate(0 1.65)" />
            <g style="opacity:.2">
                <path style="fill:#342565" d="M5.7 25.5h20l1.9 1.7H3.7z" transform="translate(0 1.65)" />
                <path style="fill:#342565" d="m25.7 10.7 1.9 7.4v9.1l-1.9-1.7z" transform="translate(0 1.65)" />
            </g>
        </svg><svg viewBox="0 0 45.14 45.14" id="s1" xmlns="http://www.w3.org/2000/svg">
            <path
                d="M-1.176 109.461c-1.957 4.798-3.137 7.937-5.316 12.593 1.336 1.416 2.976 3.065 5.639 4.928-2.863-1.179-4.816-2.361-6.276-3.589-2.788 5.82-7.157 14.108-16.023 30.039 6.968-4.023 12.37-6.504 17.404-7.45-.216-.93-.339-1.936-.33-2.985l.008-.223c.11-4.465 2.433-7.898 5.184-7.665 2.751.233 4.89 4.044 4.779 8.508-.02.84-.116 1.649-.281 2.398 4.98.974 10.324 3.448 17.198 7.417-1.356-2.496-2.566-4.745-3.721-6.888-1.82-1.41-3.718-3.246-7.59-5.234 2.661.692 4.567 1.49 6.052 2.382-11.747-21.871-12.698-24.777-16.727-34.23Z"
                style="fill:#1793d1;fill-opacity:1;fill-rule:evenodd;stroke:none;stroke-width:.26458332"
                transform="translate(23.152 -108.872)" />
            <g
                style="font-style:normal;font-weight:400;font-size:8.25130367px;font-family:'DejaVu Sans Mono';fill:#1793d1;fill-opacity:1;stroke:none">
                <path
                    d="M239.84 313.7v-5.21h-1.945v-.697h4.681v.697h-1.954v5.21h-.781M243.39 313.7v-5.907h1.177l1.398 4.182c.128.39.222.681.282.875.067-.215.171-.53.314-.947l1.414-4.11h1.052v5.907h-.754v-4.944l-1.716 4.944h-.705l-1.709-5.028v5.028h-.753"
                    style="fill:#1793d1;fill-opacity:1" transform="matrix(1.25531 0 0 1.25531 -267.471 -382.544)" />
            </g>
        </svg><svg viewBox="0 0 729 729" id="s10" xmlns="http://www.w3.org/2000/svg">
            <defs>
                <linearGradient x1="167.958" y1="-.461" x2="167.958" y2="335.455" id="ka"
                    gradientTransform="scale(.46142 2.1672)" gradientUnits="userSpaceOnUse">
                    <stop stop-color="#16B0ED" stop-opacity=".8" offset="0%" />
                    <stop stop-color="#0F59B2" stop-opacity=".837" offset="100%" />
                </linearGradient>
                <linearGradient x1="1118.343" y1="-.466" x2="1118.343" y2="338.686" id="kb"
                    gradientTransform="scale(.46587 2.14653)" gradientUnits="userSpaceOnUse">
                    <stop stop-color="#7DB643" offset="0%" />
                    <stop stop-color="#367533" offset="100%" />
                </linearGradient>
                <linearGradient x1="356.338" y1="0" x2="356.338" y2="612.901" id="kc"
                    gradientTransform="scale(.8419 1.1878)" gradientUnits="userSpaceOnUse">
                    <stop stop-color="#88C649" stop-opacity=".8" offset="0%" />
                    <stop stop-color="#439240" stop-opacity=".84" offset="100%" />
                </linearGradient>
            </defs>
            <g style="fill:none;fill-rule:evenodd;stroke:none;stroke-width:1">
                <path d="M0 155.57 155-1v728L0 572.238Z" transform="translate(64.5 1)" />
                <path d="M443.06 156.982 600-1l-3.181 728L442 572.22Z" transform="matrix(-1 0 0 1 1106.5 1)" />
                <path d="M154.986 0 558 615.19 445.225 728 42 114.172Z" transform="translate(64.5 1)" />
                <path d="M155 283.832 154.787 308 31 124.71 42.462 113Z" style="fill:#000;fill-opacity:.12999998"
                    transform="translate(64.5 1)" />
            </g>
        </svg><svg viewBox="0 0 501.592 501.592" id="s11" xmlns="http://www.w3.org/2000/svg">
            <defs>
                <linearGradient id="la">
                    <stop offset="0" stop-color="#699ad7" />
                    <stop offset=".243" stop-color="#7eb1dd" />
                    <stop offset="1" stop-color="#7ebae4" />
                </linearGradient>
                <linearGradient id="lb">
                    <stop offset="0" stop-color="#415e9a" />
                    <stop offset=".232" stop-color="#4a6baf" />
                    <stop offset="1" stop-color="#5277c3" />
                </linearGradient>
                <linearGradient xlink:href="#la" id="lc" gradientUnits="userSpaceOnUse"
                    gradientTransform="translate(70.65 -1055.151)" x1="200.597" y1="351.411" x2="290.087"
                    y2="506.188" />
                <linearGradient xlink:href="#lb" id="le" gradientUnits="userSpaceOnUse"
                    gradientTransform="translate(864.696 -1491.34)" x1="-584.199" y1="782.336" x2="-496.297"
                    y2="937.714" />
            </defs>
            <g transform="translate(-156.484 966.966)">
                <path
                    d="m309.549-710.388 122.197 211.675-56.157.527-32.624-56.87-32.856 56.566-27.903-.011-14.29-24.69 46.81-80.49-33.23-57.826z"
                    id="ld" stroke-miterlimit="4"
                    style="opacity:1;fill-opacity:1;fill-rule:evenodd;stroke:none;stroke-width:3;stroke-linecap:butt;stroke-linejoin:round;stroke-miterlimit:4;stroke-dasharray:none;stroke-opacity:1" />
                <use xlink:href="#ld" transform="rotate(60 407.112 -715.787)" width="100%" height="100%" />
                <use xlink:href="#ld" transform="rotate(-60 407.312 -715.7)" width="100%" height="100%" />
                <use xlink:href="#ld" transform="rotate(180 407.419 -715.756)" width="100%" height="100%" />
                <path id="lf"
                    d="m309.549-710.388 122.197 211.675-56.157.527-32.624-56.87-32.856 56.566-27.903-.011-14.29-24.69 46.81-80.49-33.23-57.826z"
                    style="color:#000;clip-rule:nonzero;display:inline;overflow:visible;visibility:visible;opacity:1;isolation:auto;mix-blend-mode:normal;color-interpolation:sRGB;color-interpolation-filters:linearRGB;solid-color:#000;solid-opacity:1;fill-opacity:1;fill-rule:evenodd;stroke:none;stroke-width:3;stroke-linecap:butt;stroke-linejoin:round;stroke-miterlimit:4;stroke-dasharray:none;stroke-dashoffset:0;stroke-opacity:1;color-rendering:auto;image-rendering:auto;shape-rendering:auto;text-rendering:auto"
                    display="inline" overflow="visible" visibility="visible" stroke-miterlimit="4" />
                <use xlink:href="#lf" transform="rotate(120 407.34 -716.084)" width="100%" height="100%" />
                <use xlink:href="#lf" transform="rotate(-120 407.288 -715.87)" width="100%" height="100%" />
            </g>
        </svg><svg viewBox="0 0 84.02 68.027" id="s12" xmlns="http://www.w3.org/2000/svg">
            <path class="mst1"
                d="M129.4 159.4c8.5-8.4 20.7-10.7 31.8-14.2 12.7-.7 25.4 3.2 36.9 8.5 5 2 4.7 7.9 5.8 12.4-3.6.8-7.2 1.5-10.8 2.4 1.6-2.5 3.1-4.9 4.6-7.4-.1-2.4-2.9-3.3-4.3-5l-5.7 3.9-3.9-3.3c-3.5.5-7.3 1-10.6-.9-5.6-2.5-11.6-4.4-17.8-3.8-2.8 1.2-5 3.4-7.3 5.3 0-1 .1-3 .1-4-1.3 1.5-2.6 3-3.8 4.6-8.6.9-12.6 9.8-10.7 17.5-1.8 1.4-3.7 2.9-5.5 4.3 2-3.9 3.7-8.2 1.4-12.4-6.4 1.9-6.9 8.9-9.8 13.9-3 5.5-8.1 9.7-10.5 15.5-.2 3.2.3 6.3.6 9.5-2.4-.7-4.8-1.3-7.1-2 6-16.3 13.3-33.1 26.6-44.8z"
                style="fill:#90e59a" transform="matrix(.26458 0 0 .26458 -10.992 -27.148)" />
            <path class="mst2"
                d="M148.1 157.4c2.4-1.9 4.5-4.2 7.3-5.3 6.2-.6 12.2 1.3 17.8 3.8-.8 3.5-2 6.9-3.6 10.1-4.8-2.5-9.6-5.2-14.1-8.1l2.7 5.4c-1 1.4-2.1 2.7-3.1 4.1-2-2.6-4-5.2-5.9-7.9-.7 3.9-3.6 6.8-7.6 4.6.9-2.1 1.8-4.1 2.7-6.1 1.2-1.6 2.5-3.1 3.8-4.6.1.9 0 2.9 0 4z"
                style="fill:#5cce74" transform="matrix(.26458 0 0 .26458 -10.992 -27.148)" />
            <path class="mst3"
                d="M173.2 155.8c3.3 1.9 7 1.4 10.6.9l3.9 3.3 5.7-3.9c1.3 1.7 4.2 2.6 4.3 5-1.4 2.5-3 5-4.6 7.4-.9.2-2.7.6-3.5.9 1.8 2.2 3.6 4.4 5.4 6.5-7.6.4-13.1-4.8-18.9-8.6-5.3.8-9.1 6.5-14.6 7.1-2.7-1.2-5.2-2.8-7.7-4.4-.9 2.9-1.5 5.9-3.2 8.4-2.5 1.7-5.7 1.7-8.6 2.5.1 1.3.3 2.7.4 4-3.1-3-6.9-5.8-11.3-3.8 3.2 3.3-1.6 4.6-3.8 6.1-4.3 2.4-9.1 5.5-9.6 10.9-1.2 3.1.1 7.9-3.4 9.6-4.1 1.1-8.3.4-12.4.3.3-1 .8-2.9 1.1-3.9 2.4.7 4.8 1.3 7.1 2-.4-3.2-.9-6.3-.6-9.5 2.4-5.8 7.5-10 10.5-15.5 2.9-5 3.4-12 9.8-13.9 2.3 4.2.6 8.5-1.4 12.4 1.8-1.5 3.6-2.9 5.5-4.3-1.9-7.7 2.1-16.6 10.7-17.5-.9 2-1.8 4.1-2.7 6.1 3.9 2.2 6.9-.7 7.6-4.6 1.9 2.7 3.9 5.3 5.9 7.9 1-1.4 2-2.7 3.1-4.1l-2.7-5.4c4.6 2.9 9.3 5.5 14.1 8.1 1.3-3 2.5-6.4 3.3-10m-39.9 63.6c2.2.4 4.3.8 6.5 1.3-2.5 6.7-6 13.5-5.6 20.9 1.3 4.8 5.3 8.4 8.3 12.3-4.4 1.3-10.5.3-13.5 4.4-1.8 8 5.5 12.6 10.2 17.5-6.8-2.5-14.4-6.1-16.8-13.6 3.3-4.1 7.4-7.4 11.7-10.6-6.2-9.4-8.9-23.2-.8-32.2m69.3 16.9c1.6 1.4 3.3 2.8 4.9 4.1.2 2.7.4 5.5.5 8.2-2.8-3.6-5.3-7.5-5.4-12.3m42.6 2.1c1.7-2.4 4.6-2.2 6.4-.1 3.4 4.4 5.3 9.6 7.6 14.6 2.9.2 5.8.4 8.6.6-5.7 2.1-11.1 5.3-11.9 11.9-2.4-3.4 1.1-6.5 2.5-9.6-3.2-6.7-11-10.1-13.2-17.4m-81.6 4.3 1.7-.9c.3 4.5 2.4 9.7-.9 13.5-3.3-.3-6.5-.5-9.7-1.1 4.3-2.8 7.5-6.3 8.9-11.5m44.4 6c2.4 3.2 5.1 6 8.1 8.6 3.2-3.7 10.3-9.6 13.2-2.6-4.8 2.3-10.8 4-12.4 9.8 0 .2-.1.5-.1.7.7 5.1 2.6 10 4.1 14.9-11-7.1-4.4-22.4-12.9-31.4m59.8 1.4c4.7.5 9.7 1.6 13.3 5.1-4.5-.3-9.1-.1-13.3-1.7v-3.4M256 275.9c5.7 2.5 11.3 5.2 17.3 7.2 3.4-1.4 8.2-8.9 11-3.4-4.4 4-10.5 8.1-16.7 6.7-4.8-2.3-7.9-6.9-11.6-10.5m-158.7.9c1.1.2 3.2.5 4.4.6 4.8 11.1 5 24 11.6 34.4 3.8 6.2 6.9 12.7 10.5 19 3.8 6.5 10.1 10.9 16 15.4 12.6 9.3 33.4 7.9 42.3-5.8 5.7-12.2-1.4-25.1-6.3-36.3-8.4-13.2-30.3-3.2-29.7 11.2-2.5-14.3 15.8-26.4 28-19.1 8.7 5.6 11.1 16.2 14.5 25.3 4 10.9-1.9 23.8-12.2 28.6-8 5.1-17.8 3.1-26.7 3.1-12.2-.6-20.1-10.5-28-18.4-7.7-9.4-12.7-20.6-18.7-31.2-3.2-8.5-5-17.6-5.7-26.8m64.8 36.6c1.4 1.6 2.5 3.4 3.9 5.1-3.4 4.4-8.9 4.2-13.8 3.5-2-2.2-4.1-4.4-6.1-6.6 4.8 2.9 10.2 8.8 16.2 5.1-.2-2.4-.2-4.7-.2-7.1z"
                style="fill:#75d66f" transform="matrix(.26458 0 0 .26458 -10.992 -27.148)" />
            <path class="mst4"
                d="M161.3 174.4c5.5-.6 9.3-6.3 14.6-7.1 5.9 3.9 11.4 9 18.9 8.6-1.8-2.2-3.6-4.4-5.4-6.5.9-.2 2.7-.7 3.5-.9 3.6-.9 7.2-1.6 10.8-2.4.9 3.4 1.8 6.9 2.9 10.3-1.7 1.7-3.4 3.5-5.2 5.2 3.7 5.1 7.1 10.5 10.8 15.6 7.7-2.1 12.6 5.3 16 11.1-6.9-.4-14.7-.5-20.1-5.5-3.3-3-6.5-6.1-10-9l-6.3 1.8c-1.7-4.1-2.7-9.5-7.9-10.5.4 2.1.9 4.1 1.3 6.2-3.1 1.8-6.5 2.6-10 1.6 1.4-2.9 2.9-5.7 4.4-8.6-4.3-.4-6.8 3.3-9.2 6.2-.5-1.5-1-3-1.4-4.5-1.6-.2-3.1-.6-4.7-.7-2.3.5-3.2 3.8-5.7 3.9-4.1-.4-8-2.1-12.2-2.3-5 .7-9.7 2.9-14.6 4.3-1.6-1.3-3.3-2.6-4.9-3.9 2.2-1.6 7.1-2.8 3.8-6.1 4.5-2 8.2.8 11.3 3.8-.1-1.3-.3-2.7-.4-4 2.9-.7 6-.8 8.6-2.5 1.7-2.5 2.3-5.6 3.2-8.4 2.7 1.5 5.2 3.1 7.9 4.3z"
                style="fill:#8fe772" transform="matrix(.26458 0 0 .26458 -10.992 -27.148)" />
            <path class="mst5"
                d="M201.5 181.6c1.7-1.7 3.4-3.5 5.2-5.2 1.7 5.1 3.9 10.3 8.2 13.7 7.2 5.5 14.7 11.5 23.7 13.6 8 1.5 16.8.6 23.7-4 6-5.4 8.8-13.3 15-18.5 5.8 2.9 12.3 4.2 17.9 7.5 5.8 3.7 8.6 10.3 12.1 16-3.8.7-7.5 1.5-11.3 2.3 1.4 2.4 2.9 4.9 4.4 7.3-1 1.5-2 3-2.9 4.6-1.9-3-3.7-6-5.5-9-4.1 1-8 2.6-11.5 4.8l1.2 5.7c-8.8-4.5-18.2 0-26.1 4.4-2.4 1.3-4.9 2.8-7.3 4.1-5-2.7-9.9-5.5-15.2-7.6-2.1 3.4-4.6 6.7-7.1 9.9-.9-2.6-1.9-5.2-2.7-7.9-.9.1-2.7.4-3.6.5-.4 3.7-.3 7.4.2 11.1-2.4-.3-4.9-.6-7.3-.9 1.1-5 2.4-9.9 3.4-15-1.2.1-3.7.3-4.9.4-4.1 6.3-4.3 13.9-3.5 21.2-1.7-1.4-3.3-2.8-4.9-4.1.2-5.2.9-10.3 1.3-15.5-5.4-2.3-7.6 3.9-8.6 7.9-3-1-6-1.9-8.9-3-6.7-2.1-11.1-8-17.6-10.6-3.4-1.4-5.9-4.2-8.5-6.7-.3 1-.9 3-1.1 4 2.6 4.4 2.6 10.1-2.5 12.8-1.6-.2-4.8-.6-6.5-.9 5.4 5.5 13.3 6.5 20.4 8.4l-4 2.8c-6.8-2.2-14.2-2.4-20.6-5.9-.2-2.6-.5-5.3-.7-7.9-1.9-.4-3.7-.7-5.6-1.1-2.2-.4-4.3-.8-6.5-1.3-1.6-1.9-3.4-5.2-6.3-3.5-2.3 2.1-4.2 4.6-6.4 6.9-1.3-1.8-2.7-3.6-4-5.4-9.8 1.2-9 13-15.3 18.3-4 2.9-3.8 8.4-7.5 11.6-.5-4.5-.8-8.9-.3-13.4 2-7.9 5.5-15.3 7.5-23.3.2-.6.5-1.9.7-2.6 4.1.2 8.4.8 12.4-.3 3.5-1.7 2.1-6.5 3.4-9.6.6-5.4 5.3-8.5 9.6-10.9 1.6 1.3 3.3 2.6 4.9 3.9 4.9-1.5 9.6-3.6 14.6-4.3 4.2.2 8.1 1.9 12.2 2.3 2.5-.1 3.3-3.4 5.7-3.9 1.6.1 3.1.5 4.7.7.5 1.5 1 3 1.4 4.5 2.5-2.9 4.9-6.6 9.2-6.2-1.5 2.9-2.9 5.7-4.4 8.6 3.5 1 6.9.1 10-1.6-.5-2.1-.9-4.1-1.3-6.2 5.2.9 6.2 6.3 7.9 10.5l6.3-1.8c3.4 2.9 6.7 6 10 9 5.4 5 13.2 5.1 20.1 5.5-3.3-5.7-8.3-13.2-16-11.1-3.7-5.1-7.2-10.5-10.9-15.6z"
                style="fill:#a9f37e" transform="matrix(.26458 0 0 .26458 -10.992 -27.148)" />
            <path class="mst6"
                d="M296.1 207c3.8-.8 7.5-1.5 11.3-2.3 1.2 2.6 2.2 5.2 3.2 7.8-10.4 10.4-25.7 13.1-39.4 16.3-5.7 1.7-11-1.3-15.7-4 7.9-4.3 17.3-8.9 26.1-4.4l-1.2-5.7c3.6-2.2 7.5-3.8 11.5-4.8 1.8 3 3.7 6 5.5 9 .9-1.5 1.9-3.1 2.9-4.6-1.3-2.4-2.8-4.9-4.2-7.3z"
                style="fill:#87de71" transform="matrix(.26458 0 0 .26458 -10.992 -27.148)" />
            <path class="mst7"
                d="M166 318.5c-1.4-1.6-2.5-3.5-3.9-5.1 0 2.4.1 4.7.2 7.1-6 3.7-11.4-2.2-16.2-5.1 2 2.2 4.1 4.3 6.1 6.6 4.9.7 10.4.9 13.8-3.5zM116.9 261.7c-3.7-4.3-10-2.3-15-3-5.4.3-14-.9-16.1 5.7 9.8.3 19.6.4 29.4.9.5-.9 1.3-2.7 1.7-3.6zM227.3 248.1c5.4 8.8 16 7.7 24.9 7.5-3.7-3.5-8.2-6.2-11.3-10.3-1.8-1.7-2.5-5.1-5.3-5.4-5.4.7-10.8 1.5-16.3 1.3h-6c-.3 3.3-.3 6.6-.3 9.9 1.3.7 4 2.1 5.3 2.9 1.8-3.5 5.4-4.9 9-5.9zM82.3 258.6l-.4-1.1c-.2.4-.5 1.2-.6 1.6l-1.1 1.3c-.2.2-.6.7-.7.9-2.6 2.2-2.1 5.6-2.4 8.6.4.7 1.3 2.2 1.7 3 4.5 2.7 3.6-7.2.5-7.4 1.9-2.3 4-4.5 4.6-7.5z"
                style="fill:none" transform="matrix(.26458 0 0 .26458 -10.992 -27.148)" />
            <path class="mst7"
                d="M97.3 276.8c.7 9.1 2.5 18.3 5.6 26.9 6 10.5 11 21.7 18.7 31.2 8 7.9 15.9 17.8 28 18.4 8.9 0 18.8 2 26.7-3.1 10.3-4.8 16.2-17.7 12.2-28.6-3.4-9-5.9-19.7-14.5-25.3-12.2-7.3-30.5 4.8-28 19.1-.6-14.4 21.3-24.4 29.7-11.2 4.9 11.1 11.9 24.1 6.3 36.3-9 13.7-29.7 15.1-42.3 5.8-5.9-4.5-12.2-8.9-16-15.4-3.6-6.2-6.8-12.8-10.5-19-6.5-10.5-6.8-23.3-11.6-34.4-1.1-.2-3.2-.5-4.3-.7zM88.2 269.7c.3.7 1 2.1 1.4 2.8 10.7 1.1 21.4.3 32.1.3-.4-.5-1.2-1.4-1.7-1.9-10.6-.4-21.2-2.9-31.8-1.2zM251.6 238.3c-1.8-2.1-4.7-2.3-6.4.1 2.2 7.2 10 10.7 13.2 17.4-1.4 3-4.9 6.2-2.5 9.6.9-6.5 6.3-9.8 11.9-11.9-2.9-.2-5.8-.4-8.6-.6-2.3-5-4.3-10.2-7.6-14.6zM69.8 256.7c-1.1 2.5-2.4 5.1-3.7 7.5 1.1 3.2 2.8 6.2 4.8 8.9.6-.3 1.8-.8 2.3-1-4.3-5-.9-11 1.9-15.8-1.8.3-3.6.4-5.3.4zM281.1 255.2c-3.5-3.4-8.4-4.5-13.2-5h-.1v3.3c4.2 1.6 8.8 1.4 13.3 1.7zM127.6 249.9c-4.1-6.5-5.5-14.1-3-21.5-1.8.5-3.6.9-5.4 1.3-4 7.1-9.4 14.4-8.2 23 5.6 0 11.4-.1 16.6-2.8zM66.2 254.4c-3.4.6-6.8.7-10.2.2-2 3.5-4.6 6.7-8.2 8.7-3.6 2.2-2 7.3-1.4 10.7 6.4 1.2 13 .8 19.5 1.1-1.6-3.7-3.8-7.2-4.7-11.1-.5-4.1 4.8-5.7 5-9.6zM153.1 247.3c.4-2.3 1-4.7 1.5-7-3.7-3.5-9.3-3.4-13.9-4.7-1.3 6.3.1 12.6 3.8 17.8 2.7-2.1 5.5-4.4 8.6-6.1zM285.2 269.2c-9.8 1.7-19.8.5-29.6 1.8-10.5-2.1-21.2-2.4-31.9-1.6.1 1 .2 3 .3 4 10.5-.7 21.2.4 31.6-1.8 9.1 2 18.4 1.2 27.6.6 4.7-.5 9 2.4 13.6 1.9.9-6.4-7.6-4.6-11.6-4.9zM262.6 261.1c-.4.7-1.2 2.2-1.6 3 5.9 1.8 12.2.7 18.2 1.5 7.8 1.1 16.2 2 23.5-1.7-2.5-1.6-4.8-4-7.8-4.6-10.8-.6-21.6.8-32.3 1.8zM273.3 283.1c-5.9-2-11.6-4.6-17.3-7.2 3.7 3.6 6.8 8.2 11.5 10.5 6.2 1.4 12.3-2.7 16.7-6.7-2.7-5.5-7.5 2-10.9 3.4zM232.4 260.6c-2.4.6-7.6-.2-7 3.9 6.8.4 13.7.4 20.5.2 2.8.1 4-1.3 3.7-4.2-5.7 0-11.5-.3-17.2.1zM312.1 259c-.3 2.4-.5 4.8-.7 7.2-1 .6-2.9 1.8-3.8 2.5 0 2.2-.2 4.5-.3 6.7 8.3-.2 15.9-3.7 24-5.3 1.3-2.6.5-5.5.5-8.3-6.7-.6-13-3.1-19.7-2.8zM165.3 241.9l-1.7.9c-1.4 5.2-4.6 8.7-8.9 11.5 3.2.6 6.4.8 9.7 1.1 3.3-3.9 1.2-9.1.9-13.5zM206.4 256.5c-1.9-4.7-3.7-9.9-7.8-13.1-8.7.4-17.4.1-26.1.4-1.1 4.1-2.5 8-3.3 12.2 12.3 1.1 24.8.6 37.2.5z"
                style="fill:none" transform="matrix(.26458 0 0 .26458 -10.992 -27.148)" />
            <path class="mst7"
                d="M216.9 264.5c1.6-5.8 7.6-7.5 12.4-9.8-3-7.1-10-1.1-13.2 2.6-2.4-2.1-4.6-4.4-6.6-6.8 6.2 9.1 1.2 23 11.4 29.7-1.5-4.9-3.3-9.8-4.1-14.9zM155.1 264.6c6-1.8 11.7 2.2 17.7 2.2 11.5.3 23 .3 34.5-.2-.1-1.3-.3-4-.4-5.3-15.3 0-31.1-2.3-46 2-4.2-.1-8.1-2-12.2-2.7-2.8-3.8-10.1-1.1-14.7-2.2.7 2.1 1.3 4.3 1.9 6.4 3.7.1 7.5.2 11.2.2 2.4 2.6 5.4-.2 8-.4zM141.5 270.7c.9 1.2 1.8 2.5 2.7 3.7 3.6.1 7.3.2 10.9.4 17.3.1 34.5.4 51.8-.2.3-.6.9-1.7 1.3-2.2-17.7-1.2-35.4-1.4-53.1-1.7-4.5.1-9 .1-13.6 0z"
                style="fill:none" transform="matrix(.26458 0 0 .26458 -10.992 -27.148)" />
            <path class="mst8"
                d="m220.5 183.6-.2 1.2c8.6 8.6 21.4 13.9 33.4 10.4 4.6-2.5 9.2-5.6 11.4-10.5 7.5-15.5 8.8-33.8 3.7-50.2-4.6-3.3-9-7.1-11.7-12.1-5.5-7.6-14.6-15.6-24.6-12-10.2 1.4-17.4 10.4-20.2 19.8-3.8 12-5.1 25.6.1 37.4 1 5.9 2.1 13.2 8.1 16zm19.2-29.5c2.2 6.5-1.4 15.5-9.4 15.6-3.6-2.5-8.6-4.8-7.8-10-1.4-9.6 11.6-9.3 17.2-5.6zM307 191.9c4.6-4.9 10.2-8.7 15.1-13.2 8.4-12.3 15.5-28.6 9.1-43.4-2.2-9.8-13.6-13.2-22.5-12.1-11.7 2-24.6 6.2-30.8 17.3.2 10.8 1.9 21.6-.3 32.3 11.4 3 23.8 8 29.4 19.1zm8.4-45.5c2.3-.5 4.7-1.1 7-1.8 2.6 4 2.5 9.7 1.1 14.1-4.6 4.5-11.2-.1-13.1-5 1.7-2.5 3.4-4.9 5-7.3z"
                style="fill:#fbfdfc" transform="matrix(.26458 0 0 .26458 -10.992 -27.148)" />
            <path class="mst0" d="M267.8 250.1c0 .1 0 .1 0 0 .1.1.1.1 0 0 .1.1.1.1 0 0z" style="fill:#231f20"
                transform="matrix(.26458 0 0 .26458 -10.992 -27.148)" />
            <path class="mst7"
                d="M307 191.9c4.6-4.9 10.2-8.7 15.1-13.2 8.4-12.3 15.5-28.6 9.1-43.4-2.2-9.8-13.6-13.2-22.5-12.1-11.7 2-24.6 6.2-30.8 17.3.2 10.8 1.9 21.6-.3 32.3 11.4 3 23.8 8 29.4 19.1zm8.4-45.5c2.3-.5 4.7-1.1 7-1.8 2.6 4 2.5 9.7 1.1 14.1-4.6 4.5-11.2-.1-13.1-5 1.7-2.5 3.4-4.9 5-7.3zM115.3 265.3l1.6-3.6c-3.7-4.3-10-2.3-15-3-4.2.3-10.2-.4-13.7 2.3v3.5c9 .2 18.1.4 27.1.8zM124.6 228.4c-1.8.5-3.6.9-5.4 1.3-4 7.1-9.4 14.4-8.2 23 5.7 0 11.5-.1 16.6-2.8-4.1-6.5-5.5-14.1-3-21.5z"
                style="fill:none" transform="matrix(.26458 0 0 .26458 -10.992 -27.148)" />
            <path class="mst7"
                d="M129 258.2c3-4.1 9-3.1 13.5-4.4-3-3.9-7.1-7.4-8.3-12.3-.4-7.3 3.1-14.1 5.6-20.9 1.9.4 3.7.7 5.6 1.1.3 2.6.5 5.2.7 7.9 6.4 3.5 13.8 3.7 20.6 5.9 9.4 3.1 19.5 2 29-.2-.2-2.2-.3-4.4-.3-6.6 1-4 3.2-10.2 8.6-7.9-.5 5.2-1.1 10.3-1.3 15.5.1 4.7 2.5 8.7 5.4 12.3-.1-2.7-.3-5.5-.5-8.2-.8-7.2-.6-14.9 3.5-21.2 1.2-.1 3.7-.3 4.9-.4-1 5-2.3 10-3.4 15 2.4.3 4.9.6 7.3.9 9.8 1.1 19.7-1.4 28.4-6 2.5-1.3 4.9-2.7 7.3-4.1 4.7 2.8 10 5.7 15.7 4 13.7-3.2 29-5.9 39.4-16.3-.8-2.1-1.7-4.2-2.6-6.3l-.6-1.5c-3.4-5.7-6.2-12.3-12.1-16-5.6-3.3-12.1-4.7-17.9-7.5-6.2 5.2-9.1 13.1-15 18.5-6.9 4.6-15.7 5.5-23.7 4-9.1-2.1-16.5-8.1-23.7-13.6-4.4-3.4-6.6-8.6-8.2-13.7-1-3.4-2-6.8-2.9-10.3-1.1-4.4-.8-10.3-5.8-12.4l-.6-.3c-11.3-5.2-23.7-9-36.3-8.3-11 3.4-23.2 5.8-31.8 14.2-13.3 11.7-20.7 28.4-26.6 44.8-.3 1-.8 2.9-1.1 3.9-.2.7-.5 1.9-.7 2.6-2 7.9-5.5 15.4-7.5 23.3-.5 4.5-.2 9 .3 13.4 0 .8.1 2.5.2 3.4 2.7 0 5.4.1 8.1.2 5.6-9.7 9.2-21 18.5-28.1 2.2-2.2 4.1-4.7 6.4-6.9 2.9-1.6 4.8 1.7 6.3 3.5-8.1 9-5.4 22.8.9 32.1-4.2 3.1-8.4 6.4-11.7 10.6 2.3 7.5 9.9 11.1 16.8 13.6-4.9-4.7-12.2-9.3-10.4-17.3z"
                style="fill:none" transform="matrix(.26458 0 0 .26458 -10.992 -27.148)" />
            <path class="mst7"
                d="M198.5 243.4c-8.7.4-17.4.1-26.1.4-1.1 4.1-2.5 8-3.3 12.2 12.4 1.1 24.9.7 37.3.5-1.9-4.7-3.7-9.9-7.9-13.1zM166 318.5c-1.4-1.6-2.5-3.5-3.9-5.1 0 2.4.1 4.7.2 7.1-6 3.7-11.4-2.2-16.2-5.1 2 2.2 4.1 4.3 6.1 6.6 4.9.7 10.4.9 13.8-3.5zM121.7 272.8c-.4-.5-1.2-1.4-1.7-1.9-10.6-.4-21.2-2.9-31.8-1.2.3.7 1 2.1 1.4 2.8 10.6 1.1 21.4.3 32.1.3z"
                style="fill:none" transform="matrix(.26458 0 0 .26458 -10.992 -27.148)" />
            <path class="mst7"
                d="M97.3 276.8c.7 9.1 2.5 18.3 5.6 26.9 6 10.5 11 21.7 18.7 31.2 8 7.9 15.9 17.8 28 18.4 8.9 0 18.8 2 26.7-3.1 10.3-4.8 16.2-17.7 12.2-28.6-3.4-9-5.9-19.7-14.5-25.3-12.2-7.3-30.5 4.8-28 19.1-.6-14.4 21.3-24.4 29.7-11.2 4.9 11.1 11.9 24.1 6.3 36.3-9 13.7-29.7 15.1-42.3 5.8-5.9-4.5-12.2-8.9-16-15.4-3.6-6.2-6.8-12.8-10.5-19-6.5-10.5-6.8-23.3-11.6-34.4-1.1-.2-3.2-.5-4.3-.7zM232.4 260.6c-2.4.6-7.6-.2-7 3.9 6.8.4 13.7.4 20.5.2 2.8.1 4-1.3 3.7-4.2-5.7 0-11.5-.3-17.2.1zM240.9 245.3c-1.8-1.7-2.5-5.1-5.3-5.4-5.4.7-10.8 1.5-16.3 1.3h-6c-.3 3.3-.3 6.6-.3 9.9 1.3.7 4 2.1 5.3 2.9 1.9-3.5 5.5-4.9 9.1-5.9 5.4 8.8 16 7.7 24.9 7.5-3.8-3.5-8.3-6.3-11.4-10.3zM220.5 183.6l-.2 1.2c8.6 8.6 21.4 13.9 33.4 10.4 4.6-2.5 9.2-5.6 11.4-10.5 7.5-15.5 8.8-33.8 3.7-50.2-4.6-3.3-9-7.1-11.7-12.1-5.5-7.6-14.6-15.6-24.6-12-10.2 1.4-17.4 10.4-20.2 19.8-3.8 12-5.1 25.6.1 37.4 1 5.9 2.1 13.2 8.1 16zm19.2-29.5c2.2 6.5-1.4 15.5-9.4 15.6-3.6-2.5-8.6-4.8-7.8-10-1.4-9.6 11.6-9.3 17.2-5.6zM262.6 261.1c-.4.7-1.2 2.2-1.6 3 5.9 1.8 12.2.7 18.2 1.5 7.8 1.1 16.2 2 23.5-1.7-2.5-1.6-4.8-4-7.8-4.6-10.8-.6-21.6.8-32.3 1.8zM285.2 269.2c-9.8 1.7-19.8.5-29.6 1.8-10.5-2.1-21.2-2.4-31.9-1.6.1 1 .2 3 .3 4 10.5-.7 21.2.4 31.6-1.8 9.1 2 18.4 1.2 27.6.6 4.7-.5 9 2.4 13.6 1.9.9-6.4-7.6-4.6-11.6-4.9zM273.3 283.1c-5.9-2-11.6-4.6-17.3-7.2 3.7 3.6 6.8 8.2 11.5 10.5 6.2 1.4 12.3-2.7 16.7-6.7-2.7-5.5-7.5 2-10.9 3.4zM312.1 259c-.3 2.4-.5 4.8-.7 7.2-1 .6-2.9 1.8-3.8 2.5 0 2.2-.2 4.5-.3 6.7 8.3-.2 15.9-3.7 24-5.3 1.3-2.6.5-5.5.5-8.3-6.7-.6-13-3.1-19.7-2.8z"
                style="fill:none" transform="matrix(.26458 0 0 .26458 -10.992 -27.148)" />
            <path class="mst7"
                d="M251.6 238.3c-1.8-2.1-4.7-2.3-6.4.1 2.2 7.2 10 10.7 13.2 17.4-1.4 3-4.9 6.2-2.5 9.6.9-6.5 6.3-9.8 11.9-11.9-2.9-.2-5.8-.4-8.6-.6-2.3-5-4.3-10.2-7.6-14.6zM155.1 264.6c6-1.8 11.7 2.2 17.7 2.2 11.5.3 23 .3 34.5-.2-.1-1.3-.3-4-.4-5.3-15.3 0-31.1-2.3-46 2-4.2-.1-8.1-2-12.2-2.7-2.8-3.8-10.1-1.1-14.7-2.2.7 2.1 1.3 4.3 1.9 6.4 3.7.1 7.5.2 11.2.2 2.4 2.6 5.4-.2 8-.4zM141.5 270.7c.9 1.2 1.8 2.5 2.7 3.7 3.6.1 7.3.2 10.9.4 17.3.1 34.5.4 51.8-.2.3-.6.9-1.7 1.3-2.2-17.7-1.2-35.4-1.4-53.1-1.7-4.5.1-9 .1-13.6 0zM144.4 253.5c2.8-2.2 5.6-4.4 8.6-6.1.4-2.3 1-4.7 1.5-7-3.7-3.5-9.3-3.4-13.9-4.7-1.2 6.2.2 12.5 3.8 17.8zM154.7 254.2c3.2.6 6.4.8 9.7 1.1 3.3-3.8 1.2-9 .9-13.5l-1.7.9c-1.4 5.2-4.6 8.7-8.9 11.5zM216.9 264.5c1.6-5.8 7.6-7.5 12.4-9.8-3-7.1-10-1.1-13.2 2.6-2.4-2.1-4.6-4.4-6.6-6.8 6.2 9.1 1.2 23 11.4 29.7-1.5-4.9-3.3-9.8-4.1-14.9z"
                style="fill:none" transform="matrix(.26458 0 0 .26458 -10.992 -27.148)" />
            <path class="mst9"
                d="M69.8 256.7c-1.1 2.5-2.4 5.1-3.7 7.5 1.1 3.2 2.8 6.2 4.8 8.9.6-.3 1.8-.8 2.3-1-4.3-5-.9-11 1.9-15.8-1.8.3-3.6.4-5.3.4zM82.3 258.6l-.4-1.1c-.2.4-.5 1.2-.6 1.6l-1.1 1.3c-.2.2-.6.7-.7.9-2.6 2.2-2.1 5.6-2.4 8.6.4.7 1.3 2.2 1.7 3 4.5 2.7 3.6-7.2.5-7.4 1.9-2.3 4-4.5 4.6-7.5z"
                style="fill:#fff" transform="matrix(.26458 0 0 .26458 -10.992 -27.148)" />
            <path class="mst0"
                d="M230.3 169.7c8 0 11.5-9.1 9.4-15.6-5.6-3.7-18.5-4-17.2 5.5-.8 5.2 4.2 7.6 7.8 10.1zM323.5 158.6c1.4-4.4 1.5-10.1-1.1-14.1-2.3.7-4.6 1.3-7 1.8-1.7 2.4-3.3 4.8-5 7.2 1.9 5 8.4 9.6 13.1 5.1z"
                style="fill:#231f20" transform="matrix(.26458 0 0 .26458 -10.992 -27.148)" />
            <path class="mst0"
                d="M319.1 255.3c-10.3-1.8-20.7-.1-31-.3-4.6-3.1-9.1-6.7-14.8-7.1-1.8.8-3.6 1.5-5.4 2.2 4.7.5 9.6 1.6 13.2 5-4.5-.3-9.1-.1-13.3-1.7-5.7 2.1-11.1 5.3-11.9 11.9-2.4-3.4 1.1-6.5 2.5-9.6-3.2-6.7-10.9-10.2-13.2-17.4 1.7-2.4 4.6-2.2 6.4-.1 3.4 4.4 5.3 9.6 7.6 14.6 2.9.2 5.8.4 8.6.6v-3.3c-1.4.6-2.9 1.2-4.3 1.9-2.5-5.5-4.6-11.1-6.4-16.8 3.4.8 6.7 2 10.1 2.7 15.6-2.4 32.3-5.5 44.5-16.3 2.6-2.6 7.2-4.9 6.4-9.2-.3-2.2-1-4.3-2-6.2-1.7-3.6-4.1-6.9-5.6-10.7 3.5-1.3 7.1-2.6 10.5-4.2 12.2-11.9 18.3-28.9 19.6-45.7-1.2-8.9-3.7-18.7-10.6-25-12.6-6.3-27.4-4.3-40.2.3-5.8 2.3-10 7-14.9 10.8-3.9-.9-6.3-5.4-8.9-8.4-5-8.5-11.8-16.3-21.1-20-7.8-.3-16.7-2.4-23.4 2.6-3.4 2.2-7.2 4.2-9.6 7.7-5.4 10.1-8.5 21.3-9.4 32.6-1.7-.7-3.4-1.3-5.1-2-11.9-4.4-24.3-7.4-37-7-8.8 1.7-17.4 4.3-25.6 8-16.7 8.7-27.3 25.7-33.5 43-3.8 7.6-6.5 15.6-8 23.9-1.4 7.5-4.3 14.8-4.7 22.5 0 5.2.4 10.4.3 15.6-.2.1-.5.3-.7.4-5.4 3-11.8 2.9-17.8 3.9-4.5-.1-8.8-2.3-13.3-1H57c-4.8 2.3-9.9 3.6-14.7 5.8-1.1 6.8-2.2 16.2 6 18.8h8.8c10.4 0 20.7.1 31.1.2h2.4c2.5 13 5 26.4 11.9 37.9 8.1 13.1 16.1 26.8 28.4 36.4 11.8 7.9 26.7 8.2 40.2 5.8 5.1-.6 8.7-4.6 13.3-6.5 2.8-1.7 7-2.1 8-5.7 9.2-15 2.2-33.5-6.2-47.2-5.3-9.4-16.9-11.3-26.7-10.9-5.8.9-9.4 5.8-14.1 8.8-5.1 3.1-10.1 9.7-6.2 15.7 3.3 6.3 7.4 14.7 15.8 14.2 5.3-.6 12.3-1.8 14.6-7.3 1-6.7-6.9-9.9-12.2-11.1.3 3.3.6 6.5.9 9.8-2.7-1.9-5.5-3.7-8.3-5.6 1.7-8.8 11.5-8.6 18.3-11.3 6.9 10.7 14.1 24.5 8.5 37.3-6.5 8.1-18.2 7.1-27.2 5-11.8-1.8-19.7-12.4-24.9-22.3-7.9-13.7-17.5-28.4-15.8-44.9 5.5-.1 11.1-.5 16.5.1 5.3 1.2 10 5.8 15.7 3.6 12.2-3.3 24.9-1.3 37.4-1.5 9.8-.5 19.7-1 29.5-.4 3.5 1 5.5 5.3 9.6 5 4.7 1.6 7.4-3.3 10.9-5.3 7.9-.3 15.9-.5 23.7 0 3.7 6.5 9.3 13.5 17.3 14.5 9.7.4 18-6.5 23.2-14.1 6.9 1.6 14.3 3.7 21 .3 14.5-6.1 30.5-6.1 45.4-10.4v-4.3c-11.7-7.4-26.5-5.2-40-8.6zm-66.9.3c-8.9.2-19.5 1.3-24.9-7.5-3.6 1-7.2 2.4-9.1 5.9-1.3-.7-4-2.2-5.3-2.9 0-3.3 0-6.6.3-9.9h6c5.5.3 10.9-.6 16.3-1.3 2.8.3 3.5 3.7 5.3 5.4 3.2 4 7.7 6.8 11.4 10.3zm-6.3 9.1c-6.9.2-13.7.2-20.5-.2-.7-4.1 4.5-3.3 7-3.9 5.8-.4 11.5-.1 17.3-.1.2 2.9-1 4.3-3.8 4.2zm32-124.1c6.2-11.1 19.1-15.3 30.8-17.3 8.9-1.1 20.2 2.3 22.5 12.1 6.4 14.7-.7 31-9.1 43.4-4.9 4.6-10.5 8.3-15.1 13.2-5.6-11.2-18-16.2-29.4-19 2.1-10.8.5-21.7.3-32.4zm-65.6-10.4c2.8-9.4 10-18.4 20.2-19.8 10-3.6 19.2 4.4 24.6 12 2.8 5.1 7.1 8.8 11.7 12.1 5.1 16.4 3.8 34.7-3.7 50.2-2.2 5-6.9 8-11.4 10.5-12.1 3.5-24.8-1.8-33.4-10.4l.2-1.2c-6.1-2.8-7.1-10.2-8.2-16-5.1-11.8-3.8-25.4 0-37.4zM57.1 274.9c-3.6-.1-7.1-.3-10.7-.9-.6-3.4-2.1-8.4 1.4-10.7 3.6-2 6.1-5.2 8.2-8.7.4.1.7.1 1.1.1 3 .4 6.1.3 9.1-.3-.3 3.9-5.6 5.6-4.9 9.6.9 3.9 3.1 7.4 4.7 11.1-3-.1-5.9-.2-8.9-.2zm16.1-2.7c-.6.3-1.8.8-2.3 1-2-2.8-3.6-5.7-4.8-8.9 1.4-2.4 2.6-5 3.7-7.5 1.7-.1 3.5-.2 5.2-.4-2.7 4.8-6.1 10.7-1.8 15.8zm5.4.6c-.4-.7-1.3-2.2-1.7-3 .3-3-.2-6.4 2.4-8.6.2-.2.5-.6.7-.9l1.1-1.3c.2-.4.5-1.2.6-1.6l.4 1.1 1.4-.6c-.5 3-2.7 5.2-4.6 7.5 3.4.2 4.2 10.1-.3 7.4zm7.3-8.4c.5-1.5 1.3-2.6 2.3-3.4 3.5-2.7 9.5-2 13.7-2.3 5 .7 11.2-1.3 15 3l-1.6 3.6c-9-.4-18.1-.6-27.1-.8-.8 0-1.5 0-2.3-.1zm41.7-14.5c-5.2 2.7-11 2.8-16.6 2.8-1.2-8.6 4.2-15.9 8.2-23 1.8-.4 3.6-.8 5.4-1.3-2.5 7.4-1.1 15 3 21.5zm-14.4 62c3.8 6.2 6.9 12.7 10.5 19 3.8 6.5 10.1 10.9 16 15.4 12.6 9.3 33.4 7.9 42.3-5.8 5.7-12.2-1.4-25.1-6.3-36.3-8.4-13.2-30.3-3.2-29.7 11.2 4.8 2.9 10.2 8.8 16.2 5.1-.1-2.3-.2-4.7-.2-7.1 1.4 1.6 2.5 3.4 3.9 5.1-3.4 4.4-8.9 4.2-13.8 3.5-2-2.2-4.1-4.4-6.1-6.6-2.5-14.3 15.8-26.4 28-19.1 8.7 5.6 11.1 16.2 14.5 25.3 4 10.9-1.9 23.8-12.2 28.6-8 5.1-17.8 3.1-26.7 3.1-12.2-.6-20.1-10.5-28-18.4-7.7-9.4-12.7-20.6-18.7-31.2-3.1-8.6-4.9-17.8-5.6-26.9 1.1.2 3.2.5 4.4.6 4.7 11.2 5 24 11.5 34.5zm-23.6-39.4c-.4-.7-1-2.1-1.4-2.8 10.6-1.7 21.2.8 31.8 1.2.4.5 1.2 1.4 1.7 1.9-10.7 0-21.5.8-32.1-.3zm32.9-10.4c3.3-4.1 7.4-7.4 11.7-10.6-6.2-9.3-9-23.1-.9-32.1-1.6-1.9-3.4-5.2-6.3-3.5-2.3 2.1-4.2 4.6-6.4 6.9-9.3 7.1-12.9 18.4-18.5 28.1-2.7-.1-5.4-.2-8.1-.2 0-.8-.1-2.5-.2-3.4-.5-4.5-.8-8.9-.3-13.4 2-7.9 5.5-15.3 7.5-23.3.2-.6.5-1.9.7-2.6.3-1 .8-2.9 1.1-3.9 6-16.3 13.4-33 26.6-44.8 8.5-8.4 20.7-10.7 31.8-14.2 12.5-.7 25 3.1 36.3 8.3l.6.3c5 2 4.7 7.9 5.8 12.4.9 3.4 1.8 6.9 2.9 10.3 1.7 5.1 3.9 10.3 8.2 13.7 7.2 5.5 14.7 11.5 23.7 13.6 8 1.5 16.8.6 23.7-4 6-5.4 8.8-13.3 15-18.5 5.8 2.9 12.3 4.2 17.9 7.5 5.8 3.7 8.6 10.3 12.1 16l.6 1.5c.9 2.1 1.7 4.2 2.6 6.3-10.4 10.4-25.7 13.1-39.4 16.3-5.7 1.7-11-1.3-15.7-4-2.4 1.3-4.9 2.8-7.3 4.1-8.6 4.6-18.6 7.1-28.4 6-2.4-.3-4.9-.6-7.3-.9 1.1-5 2.4-9.9 3.4-15-1.2.1-3.7.3-4.9.4-4.1 6.3-4.3 13.9-3.5 21.2.2 2.7.4 5.5.5 8.2-2.9-3.6-5.3-7.6-5.4-12.3.2-5.2.9-10.3 1.3-15.5-5.4-2.3-7.6 3.9-8.6 7.9 0 2.2.2 4.4.3 6.6-9.5 2.2-19.6 3.3-29 .2-6.8-2.2-14.2-2.4-20.6-5.9-.2-2.6-.5-5.3-.7-7.9-1.9-.4-3.7-.7-5.6-1.1-2.5 6.7-6 13.5-5.6 20.9 1.3 4.8 5.3 8.4 8.3 12.3-4.4 1.3-10.5.3-13.5 4.4-1.8 8 5.5 12.6 10.2 17.5-6.7-2.7-14.3-6.3-16.6-13.8zm83.9-5.6c-12.4.2-24.9.6-37.3-.5.8-4.1 2.2-8.1 3.3-12.2 8.7-.3 17.4 0 26.1-.4 4.2 3.2 6 8.4 7.9 13.1zm-42-1.2c-3.3-.3-6.5-.5-9.7-1.1 4.3-2.9 7.5-6.4 8.9-11.5l1.7-.9c.3 4.5 2.4 9.7-.9 13.5zm-9.8-15c-.6 2.3-1.1 4.6-1.5 7-3.1 1.7-5.9 4-8.6 6.1-3.6-5.3-5-11.5-3.8-17.8 4.6 1.4 10.2 1.2 13.9 4.7zM136 264.9c-.6-2.1-1.2-4.3-1.9-6.4 4.6 1.1 11.9-1.6 14.7 2.2 4.1.7 8 2.6 12.2 2.7 14.9-4.4 30.7-2 46-2 .1 1.3.3 4 .4 5.3-11.5.4-23 .5-34.5.2-6 0-11.7-4-17.7-2.2-2.6.2-5.6 3-7.9.6-3.9-.2-7.6-.3-11.3-.4zm70.9 9.7c-17.3.6-34.5.3-51.8.2-3.6-.1-7.3-.3-10.9-.4-.9-1.2-1.8-2.5-2.7-3.7 4.5 0 9 .1 13.6 0 17.7.2 35.4.5 53.1 1.7-.4.6-1 1.7-1.3 2.2zm2.6-24.2c2 2.5 4.2 4.7 6.6 6.8 3.2-3.7 10.3-9.6 13.2-2.6-4.8 2.3-10.8 4-12.4 9.8l-.1.7c.7 5.1 2.6 10 4.1 14.9-10.3-6.6-5.2-20.4-11.4-29.6zm58.1 36c-4.8-2.3-7.8-6.9-11.5-10.5 5.7 2.5 11.3 5.2 17.3 7.2 3.4-1.4 8.2-8.9 11-3.4-4.5 4-10.6 8.1-16.8 6.7zm29.2-12.3c-4.6.6-8.9-2.3-13.6-1.9-9.2.6-18.5 1.4-27.6-.6-10.4 2.2-21.1 1.2-31.6 1.8-.1-1-.2-3-.3-4 10.7-.9 21.4-.5 31.9 1.6 9.8-1.3 19.8-.1 29.6-1.8 4 .3 12.5-1.5 11.6 4.9zm-17.6-8.5c-6-.8-12.3.3-18.2-1.5.4-.7 1.2-2.2 1.6-3 10.7-.9 21.4-2.4 32.3-1.8 3 .6 5.3 3 7.8 4.6-7.3 3.6-15.7 2.7-23.5 1.7zm52.1 4.5c-8.1 1.5-15.7 5.1-24 5.3.2-2.2.3-4.5.3-6.7.9-.6 2.8-1.9 3.8-2.5.2-2.4.5-4.8.7-7.2 6.7-.3 13 2.2 19.6 2.9.1 2.6.9 5.6-.4 8.2z"
                style="fill:#231f20" transform="matrix(.26458 0 0 .26458 -10.992 -27.148)" />
            <path class="mst10"
                d="M160.4 208.5c2.6 2.5 5.1 5.3 8.5 6.7 6.4 2.5 10.9 8.5 17.6 10.6-.6 1-1.2 2.1-1.8 3.1-9.1-2.9-18.8-.7-27.9-3.6 5.1-2.7 5.1-8.4 2.5-12.8.2-1 .8-3 1.1-4z"
                style="fill:#97eb74" transform="matrix(.26458 0 0 .26458 -10.992 -27.148)" />
            <path class="mst11"
                d="M101.2 235.7c6.3-5.3 5.5-17.1 15.3-18.3 1.4 1.8 2.7 3.6 4 5.4-9.3 7.1-12.9 18.4-18.5 28.1-2.7-.1-5.4-.2-8.1-.2 0-.8-.1-2.5-.2-3.4 3.7-3.2 3.5-8.7 7.5-11.6z"
                style="fill:#84cb71" transform="matrix(.26458 0 0 .26458 -10.992 -27.148)" />
            <path class="mst12"
                d="M233 221.3c5.3 2.1 10.2 4.9 15.2 7.6-8.6 4.6-18.6 7.1-28.4 6-.5-3.7-.6-7.4-.2-11.1.9-.1 2.7-.3 3.6-.5.9 2.6 1.8 5.2 2.7 7.9 2.5-3.2 4.9-6.5 7.1-9.9z"
                style="fill:#6cb960" transform="matrix(.26458 0 0 .26458 -10.992 -27.148)" />
            <path class="mst13"
                d="M150.3 224.4c1.6.2 4.8.6 6.5.9 9.1 2.9 18.8.7 27.9 3.6.6-1 1.2-2.1 1.8-3.1 3 1.1 5.9 2 8.9 3 0 2.2.2 4.4.3 6.6-9.5 2.2-19.6 3.3-29 .2l4-2.8c-7.1-1.9-15-2.9-20.4-8.4z"
                style="fill:#77c66c" transform="matrix(.26458 0 0 .26458 -10.992 -27.148)" />
            <path class="mst14"
                d="M56.1 254.6c3.4.5 6.8.5 10.2-.2-.3 3.9-5.6 5.6-4.9 9.6.9 3.9 3.1 7.4 4.7 11.1-6.5-.3-13.1.1-19.5-1.1-.6-3.4-2.1-8.4 1.4-10.7 3.5-2.1 6-5.2 8.1-8.7z"
                style="fill:#d07b84" transform="matrix(.26458 0 0 .26458 -10.992 -27.148)" />
            <path class="mst15"
                d="M312.1 259c6.7-.3 13 2.2 19.6 2.9 0 2.7.8 5.7-.5 8.3-8.1 1.5-15.7 5.1-24 5.3.2-2.2.3-4.5.3-6.7.9-.6 2.8-1.9 3.8-2.5.3-2.5.6-4.9.8-7.3z"
                style="fill:#fefefe" transform="matrix(.26458 0 0 .26458 -10.992 -27.148)" />
            <path class="mst16"
                d="M134.1 258.5c4.6 1.1 11.9-1.6 14.7 2.2l-3.2-.4c.5 1.6 1 3.3 1.6 4.9-3.7 0-7.5-.2-11.2-.2-.6-2.2-1.3-4.4-1.9-6.5m-45.9 11.2c10.6-1.7 21.2.8 31.8 1.2.4.5 1.2 1.4 1.7 1.9-10.7 0-21.5.8-32.1-.3-.4-.7-1.1-2.1-1.4-2.8z"
                style="fill:#e1cb86" transform="matrix(.26458 0 0 .26458 -10.992 -27.148)" />
            <path class="mst17"
                d="M85.9 264.4c2-6.6 10.6-5.4 16.1-5.7 5 .7 11.2-1.3 15 3l-1.6 3.6c-9.9-.5-19.7-.6-29.5-.9m69.2 6.4c17.7.2 35.4.5 53.1 1.7-.3.6-1 1.7-1.3 2.2-17.3.6-34.5.3-51.8.2v-4.1z"
                style="fill:#ddc377" transform="matrix(.26458 0 0 .26458 -10.992 -27.148)" />
            <path class="mst18"
                d="m145.6 260.3 3.2.4c4.1.7 8 2.6 12.2 2.7 14.9-4.4 30.7-2 46-2 .1 1.3.3 4 .4 5.3-11.5.4-23 .5-34.5.2-6 0-11.7-4-17.7-2.2-2.6.2-5.6 3-7.9.6-.7-1.8-1.2-3.4-1.7-5m-4.1 10.4c4.5 0 9 .1 13.6 0v4.1c-3.6-.1-7.3-.3-10.9-.4-.9-1.2-1.8-2.4-2.7-3.7z"
                style="fill:#dcc576" transform="matrix(.26458 0 0 .26458 -10.992 -27.148)" />
            <path class="mst19"
                d="M225.4 264.5c-.7-4.1 4.5-3.3 7-3.9 5.8-.4 11.5-.1 17.3-.1.3 2.9-.9 4.3-3.7 4.2-6.9.2-13.8.2-20.6-.2m37.2-3.4c10.7-.9 21.4-2.4 32.3-1.8 3 .6 5.3 3 7.8 4.6-7.3 3.6-15.6 2.8-23.5 1.7-6-.8-12.3.3-18.2-1.5.4-.8 1.2-2.3 1.6-3m-38.9 8.4c10.7-.9 21.4-.5 31.9 1.6 9.8-1.3 19.8-.1 29.6-1.8 4.1.3 12.6-1.5 11.6 4.9-4.6.6-8.9-2.3-13.6-1.9-9.2.6-18.5 1.4-27.6-.6-10.4 2.2-21.1 1.2-31.6 1.8-.1-1-.2-3-.3-4z"
                style="fill:#f5d776" transform="matrix(.26458 0 0 .26458 -10.992 -27.148)" />
            <path class="mst20" d="M216.8 265.2c0-.2.1-.5.1-.7z" style="fill:#959d64"
                transform="matrix(.26458 0 0 .26458 -10.992 -27.148)" />
        </svg><svg viewBox="0 0 700 700" id="s13" xmlns="http://www.w3.org/2000/svg">
            <path fill="#cb0000" d="M0 700h700V0H0z" />
            <path fill="#fff" d="M150 550h200V250h100v300h100V150H150z" />
        </svg><svg viewBox="0 0 122.7 122.7" id="s14" xmlns="http://www.w3.org/2000/svg">
            <path d="M38.65 39.2 61.25 0h-45.3zm-25.4 44.3h45.3l-22.7-39.1Zm51 0 22.6 39.2 22.6-39.2z"
                style="fill:#c160ef" />
            <path d="m61.25 0-22.6 39.2h45.2zm-25.4 44.4 22.7 39.1 22.6-39.1zm51 0-22.6 39.1h45.2z"
                style="fill:#a60ee5" />
        </svg><svg viewBox="0 0 696.13 696.138"
            style="fill-rule:evenodd;image-rendering:optimizeQuality;shape-rendering:geometricPrecision" id="s15"
            xmlns="http://www.w3.org/2000/svg">
            <path
                d="M151.562 369.796c-12.99 21.01-60.17 20.75-38.44-11.69-25.55 0-24.16-13.75-7.42-26.19 11.25-8.37 23.87-12.97 42.95-13.06.26-.02.47-.03.62-.01l.15.15h7.77c0 .02.13-.11.13-.09h.03c1.82 7.52 1.55 14.43.78 23.1-.05 7.86.99 16.69.59 23.22-.08.11-.79.99-.79 1.01-2.08 1.58-3.68 2.28-6.36 3.57z"
                style="fill:#bfbab7" />
            <g style="fill:#4d4039" transform="translate(.022 78.026)">
                <use xlink:href="#pa" width="100%" height="100%" />
                <path
                    d="M158.69 287.19c-1.88 2.62-3.61 3.67-7.15 4.58-3.82-20.27-4.54-29.6-2.29-50.97h8.08c1.82 7.52 1.54 14.5.77 23.16-.05 7.86.99 16.69.59 23.22z" />
            </g>
            <path
                d="m478.702 296.176.17.88c4.38 5.24 15.33 1.99 20.37 2.39 6.41.51-10.48 4.88-14.89 4.65-2.5-.19-5.68-1.36-2.36 1.96 1.16 1.35 2.53 2.98 4.68 3.87l15.83 7.35c3.82 2.62-7.46.27-7.33 1.09 1.76 4.22 3.63 7.59 5.38 12.02 1.48 3.73 3.43 9.08 4.41 13.22 13.07-17.36 25.78-34.45 49.07-34.56 61.5-.28 1.87 88.16-41.95 88.48-8.65.06-19.7-3.53-19.7-3.53s-.38.07 0 0c-3.16-.27-.7 3.39 2.36 14.87 1.2 4.51-2.39 4.99-6.14 6.53-4.82 1.98-9.48 3.61-14.26 5.82-5.57 2.58-11.44 4.43-17.58 4.84-1.75.12-2.74.46-4.76.46-2.99 0-2.87 1.35-4.78-1.24-.14-.19-.27-.36-.37-.52l-.36.1c-54.46 14.63-138.75 4.49-193.94-1.15-5.08 16.13-21.47 25.8-37.45 30.2-13.27 3.65-30.99 2.01-42.27-6.56-14.2-12.29-7.65-32.21 4.94-41.94l.07-.81-.08.03c-5.9-1.99-15.69-21.93-17.59-27.39-4.62-13.28-3.31-44.92-2.87-58.48.34-10.54 5.88-26.54 5.02-28.61-.68-1.64-.68-2.28-4.6-3.45-7.1-2.11-13.99-1.68-21.22-.88-10.72 1.18-5.94.72-5.5 7.04.79 11.38-20.39 20.38-30.74 16.4-12.77-4.92 1.19-15.4 3.9-19.1-6.5 0-18.6 3.29-24.49 5.04-7.82 2.32-15.35 5.72-22.93 7.48 7.4-11.04 39.93-19.56 50.97-19.71 10.11-.14 5.94 1.6 14.9-1.17 14.02-4.33 30.49-6.46 43.28 2.1 1.11-1.86 3.52-8.63 7.05-14.24 4.31-6.83 22.53-20.79 28.96-23.03 6.85-2.38 11.18.32 17.32-2.82 12.84-6.56 13.34-11.84 28.08-16.45 26.43-8.27 13.91-2.68 50.25-13.45 7.74-6.66 37.3-16.95 40.3-21.38 2.6 2.78 12.37 9.34 15.94 11.78 17.67-9.34 22.57-9.84 45.63-9.84 5.24-9.9 15.44-25.96 26.84-28.61-1.43 6.13-14.54 23.16-18.79 29.51 2.86.67 6.18 1.05 8.98 1.76 16.49 4.17 30.55 14.24 39.84 16.52 19.23 4.73 37.08 29.61 44.84 46.39 6.06 13.09 6.94 26.54-10.45 14.91 1.33 5.72 2.35 14.41-3.42 16.09-3.18 2.06-4.77 4.06-8.57 5.12zm-265.56 150.8c-.2.05-.39.1-.59.14zm-1.81.43-.67.15c.22-.05.45-.09.67-.15zm-1.76.37-.72.14a18.27 18.27 0 0 0 .72-.14zm-1.74.32-.71.12c.24-.04.47-.07.71-.12zm-1.7.26-.7.09zm-1.67.21a15.66 15.66 0 0 1-.68.07zm-1.63.16-.66.05c.22-.01.44-.03.66-.05zm-1.63.11-.6.03zm-1.68.06c-.15 0-.3.01-.45.01.15 0 .3-.01.45-.01zm-3.4-.07c-.16-.01-.31-.02-.46-.04.15.01.31.03.46.04zm-1.41-.11-.54-.06zm-1.38-.16c-.19-.02-.37-.05-.56-.08.19.03.37.06.56.08zm-1.33-.2c-.19-.03-.38-.07-.57-.1.19.04.38.07.57.1zm-1.31-.25-.55-.12zm-1.26-.29c-.18-.04-.36-.09-.53-.14zm-1.23-.33-.51-.15zm-1.2-.38c-.16-.05-.32-.11-.48-.16.16.06.32.11.48.16zm-1.21-.44-.38-.15zm-1.45-.61c-.07-.03-.13-.06-.2-.1.07.03.13.07.2.1zm-1.03-.5-.39-.21zm-.99-.54c-.14-.08-.28-.16-.41-.25.14.08.27.17.41.25zm-.95-.57-.42-.27c.14.09.27.18.42.27zm-.9-.61-.42-.3zm-.86-.64-.4-.32a11.2 11.2 0 0 0 .4.32zm-.82-.67-.39-.34c.13.11.26.23.39.34zm-.77-.7-.38-.36a13.28 13.28 0 0 0 .38.36zm-.72-.72c-.12-.13-.25-.26-.36-.39zm-.68-.75c-.12-.14-.24-.27-.35-.41.11.14.23.27.35.41zm-.6-.74c-.23-.29-.44-.59-.65-.89.21.3.43.6.65.89zm-.9-1.26c-.11-.16-.2-.32-.3-.49zm-.52-.84c-.1-.17-.19-.34-.28-.51.09.17.18.34.28.51zm-.48-.87c-.09-.17-.17-.34-.25-.52zm-.43-.89c-.08-.18-.16-.35-.23-.53a8.46 8.46 0 0 0 .23.53zm-.38-.91-.21-.55zm-.34-.93-.19-.58c.06.2.12.39.19.58zm-.29-.94c-.06-.2-.11-.41-.17-.62.05.21.11.41.17.62zm-.24-.94-.15-.67c.04.23.09.45.15.67zm-.18-.86zm-.35-3.8.01-.78c-.01.26-.01.52-.01.78zm.02-1.05c.01-.26.03-.51.05-.77zm.07-1.06c.02-.26.05-.51.08-.77zm.12-1.07c.03-.26.07-.51.12-.77zm.17-1.08.15-.79a10.02 10.02 0 0 0-.15.79zm.21-1.06c.06-.28.13-.55.2-.83zm.25-1.02c.45-1.7 1.07-3.42 1.88-5.15-.81 1.73-1.44 3.45-1.88 5.15zm1.94-5.27a24.53 24.53 0 0 1 .44-.89zm.56-1.14.46-.84c-.16.28-.31.56-.46.84zm.62-1.13.48-.82zm.66-1.13.52-.82c-.18.27-.35.55-.52.82zm.71-1.12a20.76 20.76 0 0 1 .57-.84zm.75-1.09.64-.88c-.22.29-.43.58-.64.88zm.77-1.05.73-.95c-.25.31-.49.63-.73.95zm-54.92-116.24c-7.89-4.17-17.64 2.6-21.47 9.84 10.13 0 17.1-1.51 21.47-9.84z"
                style="fill:#bfbab7" />
            <path
                d="M504.712 344.046c11.08-19.16 26.11-38.33 49.94-37.82 65.09 1.39 4.61 94.4-42.81 92.91-8.64-.27-20-4.91-20-4.91s.27-.25.91-.26c4.86-.04 25.95-.09 30.35-2.12 5.96-2.75 14.95-6.97 23.18-13.5 56.12-44.51 22.53-89.26-23.85-51.61-7.62 6.19-16.26 16.54-17.55 17.38-.14.09-.21.06-.17-.08z"
                style="fill:#4d4039" />
            <path
                d="m460.272 489.366-.06.17zm-32.21 59.2c-3.44-1.4-3.47-2.22-7.51-5.01l-7.32-5.21c-5.41-3.89-9.9-6.04-11.53-13.93 1.21-2.79-8.96-5.56-4.6-7.07 1.38-.48.42-3.27 1.59-3.68-1.93-2.48 7.74 1.02 8.88-2.31 2.59-7.57 8.95-11.71 15.64-15.41 2.66-1.48 8.06-12 15.52-15.13 1-2.53 9.97-1.18 10.87-3.77 4.15 2.93 7.52 8.27 10.67 12.33 1.24.99 2.08 1.49 2.63 2.68 2.28 1.85 2.22 1.88 4.37 3.96 12.36 12.03 14.47 10.34 33.11 9.24 8.53-.46 14.91-2.05 19.98-3.95l.01-.07c3.04-1.99 10.03-4.65 14.35-7.2 2.06-1.27 2.74-2.4 5.07-1.56 3.83 1.39 3.31 14.16 2.32 17.96-3.53 13.53-25.33 32.36-38.09 37.13-5.24 1.96-16.39 7.06-20.47 8.15 1.29 1.92 8.95 8.23 11.63 8.94-1.01 3.76-15.04 15.86-18.79 21.46-6.6-3.16-35.47-6.06-34.05-10.33a17.16 17.16 0 0 0-.83-1.6c-1.1-1.85-3.59-4.15-4.49-5.95-1.54-3.09-4.52-8.15-5.37-11.46-1.28-2.07-3.73-5.91-3.58-8.21zm43.59 6.25c.1.12.19.24.29.36-.09-.12-.19-.24-.29-.36zm1.44 2.11c.02.05.04.09.06.13-.02-.04-.04-.09-.06-.13zm.06.13a5.92 5.92 0 0 1-.25.12 5.92 5.92 0 0 1 .25-.12zm-4.11 2.53c-.18.13-.37.26-.55.4zm5.56-22.44.41-.42zm.6-.62c.13-.14.26-.27.38-.41-.13.14-.25.28-.38.41zm.58-.63a13.92 13.92 0 0 0 .37-.42zm.55-.63.38-.45zm.44-.53zm.92-1.18.35-.48a14.56 14.56 0 0 1-.35.48zm.5-.7c.11-.15.21-.31.32-.46a7.52 7.52 0 0 1-.32.46zm.47-.7c.1-.16.21-.32.31-.48-.1.16-.2.32-.31.48zm.44-.69c.1-.17.21-.33.31-.5a8.38 8.38 0 0 1-.31.5zm.36-.58a41.25 41.25 0 0 0 .64-1.13 25.18 25.18 0 0 1-.64 1.13zm.73-1.3c.09-.16.17-.33.25-.49zm.38-.75.23-.47c-.07.16-.15.32-.23.47zm.36-.76.21-.45zm.34-.76.2-.47c-.06.16-.13.31-.2.47zm.29-.7c.12-.3.23-.6.34-.9zm.45-1.23.15-.45zm.25-.78c.04-.14.09-.28.13-.43-.04.14-.08.28-.13.43zm.23-.8c.04-.14.07-.27.11-.41-.03.13-.07.27-.11.41zm.2-.79.09-.39zm.22-1.04a6.13 6.13 0 0 0 .07-.42c-.02.14-.05.28-.07.42zm.15-.85c.02-.13.04-.26.05-.39-.02.13-.03.26-.05.39zm.1-.78c.01-.13.03-.26.04-.39-.01.13-.02.26-.04.39zm.07-.78c.01-.12.02-.24.02-.37-.01.12-.02.24-.02.37zm.04-.79c0-.11.01-.22.01-.34 0 .11-.01.22-.01.34zm.01-1.05c0-.1-.01-.2-.01-.3 0 .1.01.2.01.3zm-.04-.75-.03-.32zm-.07-.74c-.01-.11-.03-.22-.04-.32.01.11.03.21.04.32zm-.1-.75c-.02-.1-.03-.2-.05-.3.02.1.03.2.05.3zm-.15-.79c-.02-.07-.03-.15-.05-.22.02.07.03.15.05.22zm-.23-.91c-.02-.07-.04-.14-.07-.21.02.07.05.14.07.21zm-.22-.69-.09-.26zm-.26-.68c-.04-.09-.07-.17-.11-.26.04.09.07.17.11.26zm-.3-.67a5.92 5.92 0 0 1-.12-.25 5.92 5.92 0 0 1 .12.25zm-.38-.73c-.03-.05-.05-.09-.08-.14.03.05.05.09.08.14zm-.46-.75c-.04-.05-.08-.11-.11-.16.04.05.08.11.11.16zm-.42-.59c-.05-.07-.11-.14-.16-.21.05.07.11.14.16.21zm-.46-.58-.18-.21zm-.52-.57-.18-.18zm-.63-.61a.9.9 0 0 0-.1-.09.9.9 0 0 0 .1.09zm-.69-.58c-.06-.04-.12-.09-.18-.13.06.04.12.09.18.13zm-.64-.47c-.08-.05-.16-.11-.23-.16.08.05.16.1.23.16zm-.69-.45a3.65 3.65 0 0 1-.26-.16 3.65 3.65 0 0 1 .26.16zm-.76-.43c-.08-.04-.15-.08-.23-.13.08.04.16.08.23.13zm-1.84-.84c-.08-.03-.17-.06-.26-.1.09.03.17.06.26.1zm-.87-.31c-.11-.04-.22-.07-.33-.11.11.03.22.07.33.11zm-.93-.28c-.12-.03-.23-.07-.35-.1.12.03.24.06.35.1zm-1-.26c-.11-.03-.22-.05-.33-.08.11.02.22.05.33.08zm-2.42-.44c-.11-.01-.23-.03-.34-.04.11.01.23.03.34.04zm-1.13-.13c-.14-.01-.28-.02-.42-.04.14.01.28.02.42.04zm-1.18-.09a6.77 6.77 0 0 0-.45-.02c.15.01.3.01.45.02zm-1.29-.05c-.13 0-.26-.01-.4-.01.13 0 .26.01.4.01z"
                style="fill:#826552" />
            <path
                d="M405.512 521.546c-6.74 2.35-11.42 3.5-19.54 4.62-5.21.72-13.43 1.68-18.73 1.87-12.77.45-24.42-3.39-32.01-8.09v-.01a7.84 7.84 0 0 1-1.07-.23c-.2-.06-14.74.08-17.08-.21-7.12-.89-7.43-1.71-13.53-3.68-.47-.15-5.99-.53-6.87-1.16-.78-.55-10.2-1.92-11.33-1.97-10.73-.52-19.42 7.98-19.55 7.97a16.78 16.78 0 0 0-1.24-.05l.01.24c-6.2 2.56-11.34-1.17-15.25-3.58-16.6-6.52-37.4-27.82-40.13-32.35 5.27-7.99 9.55-10.49 14.68-22.35 5.4-12.47.38-33.78-2.64-44.17 19.73 1.69 84.3 4.46 105.16 5.7 42.59 2.54 73.35 3.17 114.44-5.93 18.96-4.2 56.1-52.07 55.23 9.19-1.04 10.08-6.47 17.77-12.53 23.74 5.82 3.89 7.35 5.23 10.74 11.62-4.88-1.14-10.5-5.5-14.32-8.05-13.09 10.18-12.46 9.44-29.53 13.41 0 26.57-21.51 45.31-44.92 53.46z"
                style="fill:#bfbab7" />
            <use xlink:href="#pa" style="fill:#4d4039" width="100%" height="100%" transform="translate(.022 78.026)" />
            <path
                d="m296.482 594.876-.21-.16zm-42-18.87 4.54-13.19c1.25-2.14-.64.09 1.41-1.74-.51-2.69 1.01-8.37 3-10.27.34-4.89.9-8.52.9-14.76-.01-5.04-.29-10.22.25-15.2-.24-7.43-2.77-21.4 1.78-25.68 5.94-3.48 14.72-9.59 21.93-5.59.99.89 1.08.65 1.97 2.51 10.62 1.06 22.08 2.86 30.31 7.45 3.67 2.05 8.87 5.78 10.95 7.81 4.09 4 4.94 5.24 3.71 12.61-.3 3.17-.53 3.89-1.1 6.29l-1.54 5.66c-.05.15-.15.45-.27.65-.47 3.66-.36 2.55-.89 5.29-1.36 23.16-2.39 16 11.37 32.45 4.95 5.92 10 12.45 16.94 16.15l3.48 1.86 3.99 2.65c.89-.07 17.01 1.9 17.89 2.33.79.79 3.44 15.31-11.43 18.97-16.13 3.97-55.45 11.37-67.54-.86-2.53-2.55-4.97-7.09-7.82-9.17 0 8.28 5.71 11.15-10.71 11.65-5.99.18-16.51.7-19.48-4.73l-13.76-28.39c-1.03-2.67-1.48-1.75.11-4.74zm20.13-1.89 1.7 12.91zm21.24 20.29a3.19 3.19 0 0 0-.23-.16c.08.05.15.11.23.16zm-.61-.44c-.08-.06-.17-.11-.25-.17.08.06.17.11.25.17zm-.6-.41c-.08-.06-.17-.11-.25-.16zm-.58-.37c-.08-.05-.17-.1-.25-.15.08.05.16.1.25.15zm-1.14-.67c-.08-.05-.16-.09-.24-.13.08.04.16.09.24.13zm39.31-59.97h.07l-.07-.01zm-43.96-42.96a3.55 3.55 0 0 0-.44.35c.15-.12.29-.24.44-.35z"
                style="fill:#826552" />
            <path
                d="m463.272 493.126.68 10.47c30.15-.64 20.39 31.77 2.32 39.22 1.8 4.06 7.22 7.97 11 10.59 6.68-3.37 12.43-7.25 19.54-10.33 11.33-4.9 20.4-9.29 28.13-17.17-2.72-6.07-5.19-17.16-4.58-24.68 3.04-1.99 10.03-4.65 14.35-7.2 2.06-1.27 2.74-2.4 5.07-1.56 3.83 1.39 3.31 14.16 2.32 17.96-3.53 13.53-25.33 32.36-38.09 37.13-5.24 1.96-16.39 7.06-20.47 8.15 1.29 1.92 8.95 8.23 11.63 8.94-1.01 3.76-15.04 15.86-18.79 21.46-6.6-3.16-35.47-6.06-34.05-10.33 0 0 3.81-.33 4.85-.89 12.02-6.5 20.46-15.28 25.97-17.84-1.4-3.17-8.74-9.48-11.98-11.2-7.25 3.62-20.52 9.82-29.53 10.92-1.28-2.07-3.73-5.91-3.58-8.21 1.47-1.79 19.53-7.69 23.87-12.41-5.43-5.82-11.64-9.66-16.71-16.48-5.06-.32-12.62-2.34-9.07-3.41 1.56-.47 6.35 1.15 8.63-2.13 2.12-3.06-.68-6.06-1.74-8.7a65.12 65.12 0 0 0 3.02-2.97c1.93 3.12 2.94 11.79 2.74 15.67 5.42 4.4 11.28 11.57 17.9 15.38 12.39-8.2 26.84-21.16 4.88-25.88-4.5-.97-2.5-14.9-1.3-18.27 1.56 1.25 2.49 1.71 2.99 3.76zm-14.86-174.53c27.26 9.62 16.39 63.05-10.59 53.88-10.98-3.73-17.52-18.33-15.08-33.09 1.93-11.65 11.53-25.78 25.66-20.8zm-109.88 8.85c26.41 8.81 17.14 62.03-10.05 54.14-10.64-3.08-17.87-17.6-15.79-32.41 1.73-12.29 11.48-26.52 25.84-21.73z"
                style="fill:#4d4039" />
            <path
                d="M338.532 327.446c-14.36-4.79-24.11 9.44-25.84 21.73-2.08 14.81 5.15 29.33 15.79 32.41 27.2 7.89 36.46-45.33 10.05-54.14zm-2.65-35.4c6.64.81 18.04 15.35 21.94 21.8 18.49 30.57 4.16 73.57-29.52 88.52-34.73 15.42-73.12 2.14-89.83-31.86-4.63-9.42-7.99-26.61-4.1-38.03l15.53-23.64c15.53-20.32 46.18-29.3 71.54-21.23 4.12 1.31 10.26 4.48 14.44 4.43zm112.53 26.55c-14.13-4.99-23.73 9.15-25.66 20.8-2.44 14.75 4.09 29.35 15.08 33.09 26.97 9.17 37.85-44.26 10.59-53.88zm33.28-6.34c1.92 12.53 3.95 18.81.82 32.25-2.17 9.34-7.56 19.36-12.42 24.32-6.25 6.37-10.95 11.18-22.09 14.58-28.94 8.85-57.26-13.13-61.33-45.69-2.43-19.43 6.65-44.39 20.05-51.75l1.9.1c14.19-6.27 25.54-15.1 44.63-6.8 10.81 4.7 18.31 14.9 23.49 24.24 1.87 3.37 3.13 6.49 4.96 8.75z"
                style="fill:#fff" />
            <path
                d="M194.542 484.186c-3.84 2.03-7.72 4.34-13.42 4.47 3.15-4.7 6.59-6.28 11.63-8.94-.5-2.13-.94-4.5-1.79-6.26h-30.42c1.27-4.77 6.16-5.71 11.61-6.28 6.09-.64 10.71-.87 17.92-.87-.31-3.71-.89-5.03-.89-10.06 9.81 1.49 18.25 1.87 27.66-.72 9.01-2.48 14.54-7.28 20.74-9.57 7.47 8.69 6.34 29.84-.55 37.77-4.05 4.66-7.95 7.99-13.59 11.45-9.34 11.55-19.59 13.42-28.88-10.98z"
                style="fill:#bfbab7" />
            <path
                d="M228.542 527.996zm-49.28-123c.6.9-1.15 2.58-1.74 3.35-.45.59-1.13 1.31-1.63 1.91-.83.98-1.6 1.7-2.36 2.79-.8 1.14-1.24 1.57-1.99 2.86-.46.8-1.44 2.6-2.47 2.61-.91.01-.48 1.38-1.3.96-1.66 3.43-3.25 5.83-3.51 10.9-19.53 4.28-81.32 31.66-54.96 54.93 27.07 23.88 98.68 31.8 127.7-1.59 6.89-7.93 6.45-30.24-1.01-38.93 6.16-7.1 11.84-9.56 15.54-21.31 55.19 5.64 140.48 16.01 194.94 1.38 66.15-17.78 100.75-52.6 82.87-121.49-10.34-39.87-22.67-62.94-48.79-95.2-9.1-11.24-25.9-28.46-32.25-40.21-7.06-13.06 3.65-23.56 26.26-23.56-5.12-6.99-14.79-3.04-23.64-1.27l-78.36 15.57-121.89 18.79-8.71-10c-1.26-1.15 8.99-3.23 8.05-4.24 31.82-4.56 64.51-8.93 96.09-14.9l79.77-15.96c40.98-9.02-257.04-80.16-403.4-10.61-76.02 38.36 196.69 48.08 205.89 43.72-1.57 9.69-7.9 2.99-20.49 15.77-55.97 1.41-159.71 2.36-201.48-35.74-10.4-9.49-8.17-25.62 7.2-35.3 21.49-13.54 91.63-25.75 115.76-28.27 96.11-7.49 164.34-5.76 260.04 17.91 15.11 3.74 76.86 25.17 82.45 24.9 16.53-.78 34.19-3.73 51.03-3.63 43.61.25 68.67-.94 112.41 13.76 12.39 4.16 73.29 23.42 58.56 43.54-5.72 7.81-18.89 9.01-26.01 10.67 0 16.44-30.63 8.98-45.76 7.28-50.77-5.69-72.1-5.48-120.63-29.66-5.75-2.87-19.42-3.55-26.87-3.55 10.79 16.11 23.29 30.32 34.61 49.46 30.29 51.22 83.3 147.19 22.66 193.75-25.26 19.39-56.31 29.5-87.09 36.32-41.09 9.11-79.5 14.19-122.09 11.65-20.86-1.25-40.33-5.25-60.06-6.94 3.03 10.39 10.36 23.04 4.96 35.52-5.13 11.85-12.19 16.44-19.93 23.58 2.74 4.53 2.69 4.99 1.67 10.73-2.24 12.26-18.06 35.51-29.72 43.83-21.53 15.35-41.4 16.09-64.82 33.58-5.06 3.78-9.45 6.93-14.11 10.93-8.77 7.53-13.45-1.35-12.94-4.87 2.73-18.74 73.8-41.81 90.29-58.21 3.15-3.14 9.34-10.14 10.51-14.53-4.35 1.16-13.58 10.18-38.85 15.72-31.85 6.99-89.15 11.3-99.62-29.35-2.56-9.94-5.17-3.88-13.14-14.59-10.94-14.69-14.55-36.98-1.18-50.26 15.31-15.22-5.87-7.99 32.24-35.73 12-8.74 64.72-18.61 71.27-8.79zm-33.93 128.37c12.9 0 49.9-1.11 59.95-9.84-10.53 0-31.82 3.58-51.89 3.58-18.77 0-28.16.29-45.63-8.94 2.45 9.17 24.8 15.2 37.58 15.2zm-57.26-44.71c0-7.49 2.06-5.23-1.16-11.33-1.51-2.86-3.47-7-4.2-10.13-5.28 2.96 3.08 17.24 5.37 21.46zm547.57-316.52c1.32 0 2.65-3.31 5.75-4.15 7.11.51 23.7-1.05 25.57 5.94 36.94 0-26.96-28.77-72.27-37.42-45.31-8.65-66.16-4.16-90.2-.65-34.4 5.03 16.99 8.54 23.41 9.83 35.1 7.07 70.08 26.46 107.74 26.46z"
                style="fill:#a98d6f" />
            <path d="M484.432 304.526c1.8 1.35 1.6 1.12 2.68 4.5-3.02-1.25-3.76-3.07-5.88-5.12z" style="fill:#b3adaa" />
            <g style="fill:#4d4039">
                <path
                    d="M335.892 292.056c-4.18.05-10.32-3.12-14.44-4.43-25.36-8.07-56.01.9-71.54 21.23l-15.53 23.64c-2.91 1.77-12.79 10.18-19.64 6.85-2.27-1.1 16.51-7.11 18.89-16.64-8.67 1.82-17.45-1.91-17.98-9.65-.24-3.54 8.07 8.78 20.7 2.86-4.05-2.9-11.24-2.88-10.28-11.22.52-4.54 3.75 4.41 12.3 5.44 13.19-17.04 19.4-25.26 41.57-31.2 21.01-5.63 57.09-.84 55.93 13.12zm151.38-1c-2.27 2.89-4.2 4.43-8.21 5.36 4.17 5.69 16.39 1.89 21.47 2.68 6.67 1.04-11.4 6.36-16.11 5.43l-3.2-.62c2.13 2.05 2.86 3.88 5.88 5.12l16.05 8.01c6.56 3.86-6.97 1.5-7.99 1.33-7.24-1.77-15.77-6.43-19.51-13.17-5.18-9.34-11.6-15.83-22.41-20.53-19.09-8.3-30.67-3.41-44.86 2.86l-1.06-.99-.61-.58c6.04-13.07 26.5-15.15 42.88-10.15 7.8 2.38 14.1 6.25 19.15 10.37 2.73 2.23 4.15 5.99 8.29 5.58 5.07-.5 11.31-8.98 10.25-.72zm-126.03 102.48c-2.66 1.13-4.32 1.83-7.7 2.07l7.42-7.99c3.42 4.56-1.24 3.36 7.65 5.77 4.23 1.14 7.55 2.05 12.01 2.34 4.4.29 8.81-.05 12.67-1.7 7.09-3.03 8.16-9.12 9.05-6.05 4.7 16.22-32.39 18.43-41.1 5.56zm-109.17-228.89 12.26 11.04c3.31 2.26 7.52 6.18 10.85 8.84 3.88 3.09 7.63 6.27 12.02 9.13-4.18 2.82-13.34 1.7-19.83 3.03-12.07 2.46-36.12 11.93-41.54 22.63 81.74 3.2 62.41-26.78 92.74-43.94 9.17-5.18 18.61-3.94 21.36 8.88 1.93 9-5.69 21.67-12.1 27.18-23.51 20.23-38.18 15.68-64.61 23.95-22.32 6.98-40.09 19.83-60.69 26.99-18.32 6.37-17.21 1.61-22.31-1.76-8.72-12.85-20.01-41.04-2.33-47.92 4.43-1.72 7.53-.88 12.17-.36l24.16 4.48c-4.68-6.98-13.56-14.37-15.77-24.5-2-9.18 4.38-16.4 12.19-20.2 4.33-2.11 10.34-4.11 14.64-6.26 5.13-2.08 3.47-7.1 11.29-7.25 4.17-.08 12.33 3.15 15.49 6.02z" />
                <path
                    d="M287.182 193.676c-4.19 2.8-13.33 1.69-19.8 3.01-12.07 2.46-36.12 11.93-41.54 22.63 5.41-10.7 25.88-23.18 37.95-25.64 6.49-1.32 17.59 1.7 21.77-1.12.25.18.82.57 1.62 1.12zm-61.34 25.64c48.38 1.9 61.35-7.84 70.17-19.65 5.82 3.95 11.91 8.11 12.11 8.48 2.41 4.29-26.76 11.51-29.47 12.37-11.87 3.77-23.82 2.81-36.19 3.77-4.4.34-13.62.54-17.85-1.41-2.1-.97-1-2.33.52-3.23-.51-.02 1.21-.31.7-.33zm26.71 204.4c-5.08 16.13-19.74 27.41-35.72 31.81-13.27 3.65-34.7 1.88-45.97-6.68-4.92-3.73-7.94-9.86-7.51-18.31.81-15.85 9.32-23.84 22.81-29.26-28.16 24.37-12.42 56.77 28.82 45.2 14.02-3.94 24.42-11.67 28.73-24.06 8-22.95-19.5-24.27-23.48-27.77 14.04-4.11 38.41 6.87 32.32 29.06zm37.71 68.37c-.04 5.95-1.05 11.43-.94 18.03.09 5.65 1.31 13.86-1.82 17.8-2.63 3.31-2.8.49-4.3 5.42-1.74 5.73-3.77 20.26-3.44 25.71 15.09 5.44 45.15 15.8 30.06-9.59 4.19-4.08 17.76-17.36 22.51-16.9-.47 3.66-.36 2.55-.89 5.29-7.11 4.28-9.72 8.89-14.57 11.35 4.67 8.65 13.36 21.9-2.9 27.55-11.8 4.1-25.19-1.74-35.29-4.83-.67 25.86 4.54 12.12 18.44 23.47 6.3 5.14 4.93 7.52 13.59 11.48 14.78 6.75 25.25 6.67 42.2 3.85l1.21-2.82c1.68-5.33 4.92-15.86 13.1-16.94.89-.07 17.01 1.9 17.89 2.33.79.79 3.44 15.31-11.43 18.97-16.13 3.97-55.45 11.37-67.54-.86-2.53-2.55-4.97-7.09-7.82-9.17 0 8.28 5.71 11.15-10.71 11.65-5.99.18-16.51.7-19.48-4.73l-13.76-28.39c-1.03-2.67-1.48-1.75.11-4.74 6.74 3.67 12.03 8.93 21.83 11.02l-2.29-17.4c-3.18-1.32-12.37-5.74-13.6-8.54-.51-2.69 1.01-8.37 3-10.27l11.56 6.15 4.13-25.78c-3.92-.87-4.9-2.09-5.41-6.31 21.56 15.02 1.45-25.92 14.58-35.27.99.89 1.08.65 1.97 2.51z" />
            </g>
            <g style="fill:#fff" transform="translate(.022 78.026)">
                <ellipse cx="341.96" cy="268.23" rx="4.63" ry="7.27" />
                <ellipse cx="452.55" cy="258.27" rx="4.48" ry="7.03" />
            </g>
            <path
                d="M267.392 196.666c6.48-1.32 15.61-.21 19.8-3.01l8.83 5.99c-8.82 11.82-21.79 21.55-70.18 19.65 5.41-10.7 29.47-20.17 41.54-22.63z"
                style="fill:#826552" />
            <defs>
                <path id="pa"
                    d="M308.1 130.11c2.41 4.29-26.76 11.51-29.47 12.37-11.87 3.77-23.82 2.81-36.19 3.77-4.4.34-13.62.54-17.85-1.41-2.1-.97-1-2.33.52-3.23-.51-.02 1.21-.31.7-.33 5.41-10.7 25.88-23.18 37.95-25.64 6.49-1.32 17.59 1.7 21.77-1.12 1.87 1.36 22.19 14.91 22.57 15.59z" />
            </defs>
        </svg><svg viewBox="0 0 9.525 12.372" id="s16" xmlns="http://www.w3.org/2000/svg">
            <defs>
                <linearGradient id="qa" x1="0" y1="0" x2="1" y2="0" gradientUnits="userSpaceOnUse"
                    gradientTransform="matrix(3.08228 -10.3064 8.72379 3.56577 19.84 42.498)">
                    <stop offset="0" style="stop-color:#ff9700;stop-opacity:1" />
                    <stop offset=".53" style="stop-color:#f48e00;stop-opacity:1" />
                    <stop offset="1" style="stop-color:#d06f00;stop-opacity:1" />
                </linearGradient>
            </defs>
            <g style="clip-rule:evenodd;fill-rule:evenodd;stroke-linejoin:round;stroke-miterlimit:1.41420996">
                <path
                    d="M35.995 26.563c0-.548-.405-.864-.902-.707L.902 36.698c-.498.158-.902.731-.902 1.278v11.081c0 .548.404.865.902.707l34.191-10.841c.497-.158.902-.731.902-1.279z"
                    transform="matrix(.26458 0 0 .26458 0 -.806)" />
                <path style="fill:#ff9800"
                    d="M0 26.21c0 .548.404 1.121.902 1.279l34.196 10.843c.498.158.902-.159.902-.706V26.544c0-.547-.404-1.12-.902-1.278L.902 14.423c-.498-.158-.902.158-.902.706Z"
                    transform="matrix(.26458 0 0 .26458 0 -.806)" />
                <path style="fill:#ff9800"
                    d="M35.995 3.793c0-.548-.405-.865-.902-.707L.902 13.927c-.498.158-.902.731-.902 1.279v11.081c0 .548.404.864.902.707l34.191-10.842c.497-.158.902-.731.902-1.278z"
                    transform="matrix(.26458 0 0 .26458 0 -.806)" />
            </g>
        </svg><svg xml:space="preserve" viewBox="0 0 283.464 283.464" id="s17" xmlns="http://www.w3.org/2000/svg">
            <path
                d="M354.331 212.595c0 78.279-63.45 141.735-141.729 141.735-78.279 0-141.735-63.456-141.735-141.735 0-78.274 63.457-141.728 141.735-141.728 78.279 0 141.729 63.453 141.729 141.728z"
                style="fill:#e95420" transform="translate(-70.867 -70.866)" />
            <path
                d="M139.043 212.595c0 10.064-8.159 18.225-18.23 18.225-10.059 0-18.218-8.16-18.218-18.225 0-10.06 8.159-18.219 18.218-18.219 10.071 0 18.23 8.159 18.23 18.219zm103.674 88.606c5.033 8.709 16.173 11.696 24.889 6.67 8.715-5.033 11.701-16.179 6.669-24.895-5.032-8.715-16.173-11.695-24.888-6.663-8.716 5.033-11.702 16.173-6.67 24.888zm31.557-158.982c5.032-8.717 2.052-19.86-6.669-24.887-8.71-5.032-19.855-2.046-24.889 6.667-5.032 8.715-2.046 19.857 6.67 24.889s19.862 2.046 24.888-6.669zm-61.672 18.413c27.153 0 49.434 20.814 51.761 47.364l26.372-.416c-1.252-19.727-9.809-37.469-22.995-50.551-6.98 2.693-15.079 2.327-22.066-1.71-6.992-4.037-11.359-10.871-12.514-18.275a78.347 78.347 0 0 0-20.558-2.733c-12.471 0-24.259 2.916-34.727 8.103l12.832 23.043a51.857 51.857 0 0 1 21.895-4.825zm-51.969 51.963c0-17.577 8.734-33.121 22.097-42.52l-13.54-22.634c-15.684 10.474-27.367 26.451-32.296 45.183 5.833 4.697 9.57 11.897 9.57 19.972 0 8.08-3.738 15.28-9.57 19.978 4.929 18.731 16.612 34.708 32.296 45.188l13.54-22.634c-13.363-9.406-22.097-24.944-22.097-42.533zm51.969 51.973a51.777 51.777 0 0 1-21.895-4.83l-12.832 23.043c10.468 5.191 22.255 8.104 34.727 8.104 7.109 0 14.004-.946 20.558-2.729 1.154-7.409 5.521-14.243 12.514-18.273 6.987-4.037 15.086-4.404 22.066-1.711 13.187-13.088 21.743-30.83 22.995-50.557l-26.372-.409c-2.328 26.543-24.608 47.362-51.761 47.362z"
                style="fill:#fff" transform="translate(-70.867 -70.866)" />
        </svg><svg style="enable-background:new 0 0 70 70" xml:space="preserve" viewBox="0 0 70 70" id="s18"
            xmlns="http://www.w3.org/2000/svg">
            <linearGradient id="sa" gradientUnits="userSpaceOnUse" x1="25.068" y1="1.46" x2="43.183" y2="66.675">
                <stop offset=".285" style="stop-color:#00cdd7" />
                <stop offset=".941" style="stop-color:#2086d7" />
            </linearGradient>
            <path d="M9.4 63.3 0 7.3 17.5.1l11.1 6.6 10.2-5.5 21.3 8.2-12 60.6z" />
            <linearGradient id="sb" gradientUnits="userSpaceOnUse" x1="30.72" y1="9.734" x2="61.365" y2="54.671">
                <stop offset=".14" style="stop-color:#fff045" />
                <stop offset=".366" style="stop-color:#00cdd7" />
            </linearGradient>
            <path d="M70 23.7 61 1.4 44.6 0 19.3 24.3l6.8 31.3 12.7 9L70 46l-7.7-14.3z" />
            <linearGradient id="sc" gradientUnits="userSpaceOnUse" x1="61.082" y1="15.29" x2="65.106" y2="29.544">
                <stop offset=".285" style="stop-color:#00cdd7" />
                <stop offset=".941" style="stop-color:#2086d7" />
            </linearGradient>
            <path d="m56 20.4 6.3 11.3 7.7-8-5.6-13.9z" />
            <path style="fill:#000" d="M13.4 13.4h43.2v43.2H13.4z" />
            <path style="fill:#fff"
                d="M17.5 48.5h16.2v2.7H17.5zM38.7 34.3l2.3-2.8c1.6 1.3 3.3 2.2 5.3 2.2 1.6 0 2.5-.6 2.5-1.7v-.1c0-1-.6-1.5-3.6-2.3-3.6-.9-5.8-1.9-5.8-5.5V24c0-3.3 2.6-5.4 6.2-5.4 2.6 0 4.8.8 6.6 2.3l-2 3c-1.6-1.1-3.1-1.8-4.6-1.8-1.5 0-2.3.7-2.3 1.6v.1c0 1.2.8 1.6 3.8 2.4 3.6 1 5.6 2.3 5.6 5.4v.1c0 3.6-2.7 5.6-6.5 5.6-2.7-.1-5.4-1.1-7.5-3M35.2 19l-2.7 10.4-3-10.4h-3l-3.1 10.4L20.7 19h-4.1l5.1 17.9H25l3-10.4 2.9 10.4h3.4L39.4 19z" />
        </svg><svg viewBox="0 0 70 70" style="enable-background:new 0 0 70 70" xml:space="preserve" id="s19"
            xmlns="http://www.w3.org/2000/svg">
            <path
                d="M3.2 32.9h25.6V8.3L3.2 12v20.9zM33 7.7v25.2h34.1V3L33 7.7zm0 54.6L67.2 67V37.1H33v25.2zM3.2 58l25.6 3.6V37.1H3.2V58z"
                style="fill:#37b" />
        </svg><svg style="display:inline;enable-background:new" version="1.0" viewBox="0 0 128 128" id="s2"
            xmlns="http://www.w3.org/2000/svg">
            <defs>
                <linearGradient id="cc">
                    <stop offset="0" style="stop-color:#2d2839;stop-opacity:1" />
                    <stop offset="1" style="stop-color:#282433;stop-opacity:1" />
                </linearGradient>
                <linearGradient id="cb">
                    <stop offset="0" style="stop-color:#fff;stop-opacity:1" />
                    <stop offset="1" style="stop-color:#fff;stop-opacity:.09411765" />
                </linearGradient>
                <linearGradient id="ca">
                    <stop offset="0" style="stop-color:#77767b;stop-opacity:1" />
                    <stop style="stop-color:#c0bfbc;stop-opacity:1" offset=".05" />
                    <stop offset=".1" style="stop-color:#9a9996;stop-opacity:1" />
                    <stop style="stop-color:#9a9996;stop-opacity:1" offset=".9" />
                    <stop offset=".95" style="stop-color:#c0bfbc;stop-opacity:1" />
                    <stop offset="1" style="stop-color:#77767b;stop-opacity:1" />
                </linearGradient>
                <linearGradient gradientUnits="userSpaceOnUse" y2="44" x2="464" y1="44" x1="48" id="cd"
                    xlink:href="#ca" />
                <linearGradient gradientUnits="userSpaceOnUse" y2="269.137" x2="70.347" y1="245.395" x1="70.347" id="cf"
                    xlink:href="#cc" />
                <radialGradient gradientUnits="userSpaceOnUse"
                    gradientTransform="matrix(-4.72727 0 0 -1.63636 238.545 49.766)" r="44" fy="194.19" fx="64"
                    cy="194.19" cx="64" id="ce" xlink:href="#cb" />
            </defs>
            <g style="display:inline" transform="translate(0 -172)">
                <rect transform="matrix(.25 0 0 .25 0 225)"
                    style="display:inline;opacity:1;fill-opacity:1;stroke:none;stroke-width:1;stroke-linecap:butt;stroke-linejoin:miter;stroke-miterlimit:4;stroke-dasharray:none;stroke-dashoffset:0;stroke-opacity:1;marker:none;marker-start:none;marker-mid:none;marker-end:none;paint-order:normal;enable-background:new"
                    width="416" height="376" x="48" y="-124" rx="32" ry="32" />
                <rect ry="32" rx="32" y="-164" x="48" height="384" width="416"
                    style="display:inline;opacity:1;fill:#deddda;fill-opacity:1;stroke:none;stroke-width:1;stroke-linecap:butt;stroke-linejoin:miter;stroke-miterlimit:4;stroke-dasharray:none;stroke-dashoffset:0;stroke-opacity:1;marker:none;marker-start:none;marker-mid:none;marker-end:none;paint-order:normal;enable-background:new"
                    transform="matrix(.25 0 0 .25 0 225)" />
                <rect transform="scale(1 -1)" ry="4" rx="4" y="-276" x="16" height="88" width="96"
                    style="display:inline;opacity:1;vector-effect:none;fill:#241f31;fill-opacity:1;stroke:none;stroke-width:.01121096px;stroke-linecap:butt;stroke-linejoin:miter;stroke-miterlimit:4;stroke-dasharray:none;stroke-dashoffset:0;stroke-opacity:1;marker:none;marker-start:none;marker-mid:none;marker-end:none;paint-order:normal;enable-background:new" />
                <path transform="scale(-1)"
                    style="display:inline;opacity:.05;vector-effect:none;fill-opacity:1;stroke:none;stroke-width:.01121096px;stroke-linecap:butt;stroke-linejoin:miter;stroke-miterlimit:4;stroke-dasharray:none;stroke-dashoffset:0;stroke-opacity:1;marker:none;marker-start:none;marker-mid:none;marker-end:none;paint-order:normal;enable-background:new"
                    d="M-108-272h88v78h-88z" />
                <g style="fill:#fff">
                    <path d="M44.012 210.888 30 203.272V208l9.71 4.63v.142L30 218v4.728l14.012-8.214zM48 226v4h16v-4z"
                        style="font-style:normal;font-variant:normal;font-weight:700;font-stretch:normal;font-size:medium;line-height:1.25;font-family:'Source Code Pro';-inkscape-font-specification:'Source Code Pro, Bold';font-variant-ligatures:normal;font-variant-caps:normal;font-variant-numeric:normal;font-feature-settings:normal;text-align:start;letter-spacing:0;word-spacing:0;writing-mode:lr-tb;text-anchor:start;fill:#fff;fill-opacity:1;stroke:none;stroke-width:.24999999"
                        transform="translate(-2 -2)" />
                </g>
                <path
                    d="M100 244h4v4h-4zm-8 0h4v4h-4zm-8 0h4v4h-4zm-8 0h4v4h-4zm-8 0h4v4h-4zm-8 0h4v4h-4zm-8 0h4v4h-4zm-8 0h4v4h-4zm-8 0h4v4h-4zm-8 0h4v4h-4zm-8 0h4v4h-4zm84 4h4v4h-4zm-8 0h4v4h-4zm-8 0h4v4h-4zm-8 0h4v4h-4zm-8 0h4v4h-4zm-8 0h4v4h-4zm-8 0h4v4h-4zm-8 0h4v4h-4zm-8 0h4v4h-4zm-8 0h4v4h-4zm-8 0h4v4h-4zm76 4h4v4h-4zm-8 0h4v4h-4zm-8 0h4v4h-4zm-8 0h4v4h-4zm-8 0h4v4h-4zm-8 0h4v4h-4zm-8 0h4v4h-4zm-8 0h4v4h-4zm-8 0h4v4h-4zm-8 0h4v4h-4zm-8 0h4v4h-4zm84 4h4v4h-4zm-8 0h4v4h-4zm-8 0h4v4h-4zm-8 0h4v4h-4zm-8 0h4v4h-4zm-8 0h4v4h-4zm-8 0h4v4h-4zm-8 0h4v4h-4zm-8 0h4v4h-4zm-8 0h4v4h-4zm-8 0h4v4h-4zm76 4h4v4h-4zm-8 0h4v4h-4zm-8 0h4v4h-4zm-8 0h4v4h-4zm-8 0h4v4h-4zm-8 0h4v4h-4zm-8 0h4v4h-4zm-8 0h4v4h-4zm-8 0h4v4h-4zm-8 0h4v4h-4zm-8 0h4v4h-4zm84 4h4v4h-4zm-8 0h4v4h-4zm-8 0h4v4h-4zm-8 0h4v4h-4zm-8 0h4v4h-4zm-8 0h4v4h-4zm-8 0h4v4h-4zm-8 0h4v4h-4zm-8 0h4v4h-4zm-8 0h4v4h-4zm-8 0h4v4h-4zm76 4h4v4h-4zm-8 0h4v4h-4zm-8 0h4v4h-4zm-8 0h4v4h-4zm-8 0h4v4h-4zm-8 0h4v4h-4zm-8 0h4v4h-4zm-8 0h4v4h-4zm-8 0h4v4h-4zm-8 0h4v4h-4zm-8 0h4v4h-4z"
                    style="opacity:1;vector-effect:none;fill-opacity:1;stroke:none;stroke-width:8;stroke-linecap:round;stroke-linejoin:round;stroke-miterlimit:4;stroke-dasharray:none;stroke-dashoffset:0;stroke-opacity:1;marker:none;marker-start:none;marker-mid:none;marker-end:none;paint-order:normal" />
            </g>
        </svg><svg overflow="visible" xml:space="preserve" style="overflow:visible" viewBox="0 0 108.449 108.449"
            id="s3" xmlns="http://www.w3.org/2000/svg">
            <path
                d="M51.986 57.297c-1.797.025.34.926 2.686 1.287a24.014 24.014 0 0 0 1.76-1.516c-1.461.358-2.948.366-4.446.229M61.631 54.893c1.07-1.477 1.85-3.094 2.125-4.766-.24 1.192-.887 2.221-1.496 3.307-3.359 2.115-.316-1.256-.002-2.537-3.612 4.546-.496 2.726-.627 3.996M65.191 45.629c.217-3.236-.637-2.213-.924-.978.335.174.6 2.281.924.978M45.172 1.399c.959.172 2.072.304 1.916.533 1.049-.23 1.287-.442-1.916-.533M47.088 1.932l-.678.14.631-.056.047-.084"
                style="fill:#a80030" transform="translate(10.582)" />
            <path
                d="M76.992 46.856c.107 2.906-.85 4.316-1.713 6.812l-1.553.776c-1.271 2.468.123 1.567-.787 3.53-1.984 1.764-6.021 5.52-7.313 5.863-.943-.021.639-1.113.846-1.541-2.656 1.824-2.131 2.738-6.193 3.846l-.119-.264c-10.018 4.713-23.934-4.627-23.751-17.371-.107.809-.304.607-.526.934-.517-6.557 3.028-13.143 9.007-15.832 5.848-2.895 12.704-1.707 16.893 2.197-2.301-3.014-6.881-6.209-12.309-5.91-5.317.084-10.291 3.463-11.951 7.131-2.724 1.715-3.04 6.611-4.227 7.507-1.597 11.737 3.004 16.808 10.787 22.773 1.225.826.345.951.511 1.58-2.586-1.211-4.954-3.039-6.901-5.277 1.033 1.512 2.148 2.982 3.589 4.137-2.438-.826-5.695-5.908-6.646-6.115 4.203 7.525 17.052 13.197 23.78 10.383-3.113.115-7.068.064-10.566-1.229-1.469-.756-3.467-2.322-3.11-2.615 9.182 3.43 18.667 2.598 26.612-3.771 2.021-1.574 4.229-4.252 4.867-4.289-.961 1.445.164.695-.574 1.971 2.014-3.248-.875-1.322 2.082-5.609l1.092 1.504c-.406-2.696 3.348-5.97 2.967-10.234.861-1.304.961 1.403.047 4.403 1.268-3.328.334-3.863.66-6.609.352.923.814 1.904 1.051 2.878-.826-3.216.848-5.416 1.262-7.285-.408-.181-1.275 1.422-1.473-2.377.029-1.65.459-.865.625-1.271-.324-.186-1.174-1.451-1.691-3.877.375-.57 1.002 1.478 1.512 1.562-.328-1.929-.893-3.4-.916-4.88-1.49-3.114-.527.415-1.736-1.337-1.586-4.947 1.316-1.148 1.512-3.396 2.404 3.483 3.775 8.881 4.404 11.117-.48-2.726-1.256-5.367-2.203-7.922.73.307-1.176-5.609.949-1.691-2.27-8.352-9.715-16.156-16.564-19.818.838.767 1.896 1.73 1.516 1.881-3.406-2.028-2.807-2.186-3.295-3.043-2.775-1.129-2.957.091-4.795.002-5.23-2.774-6.238-2.479-11.051-4.217l.219 1.023c-3.465-1.154-4.037.438-7.782.004-.228-.178 1.2-.644 2.375-.815-3.35.442-3.193-.66-6.471.122.808-.567 1.662-.942 2.524-1.424-2.732.166-6.522 1.59-5.352.295-4.456 1.988-12.37 4.779-16.811 8.943l-.14-.933c-2.035 2.443-8.874 7.296-9.419 10.46l-.544.127c-1.059 1.793-1.744 3.825-2.584 5.67-1.385 2.36-2.03.908-1.833 1.278-2.724 5.523-4.077 10.164-5.246 13.97.833 1.245.02 7.495.335 12.497-1.368 24.704 17.338 48.69 37.785 54.228 2.997 1.072 7.454 1.031 11.245 1.141-4.473-1.279-5.051-.678-9.408-2.197-3.143-1.48-3.832-3.17-6.058-5.102l.881 1.557c-4.366-1.545-2.539-1.912-6.091-3.037l.941-1.229c-1.415-.107-3.748-2.385-4.386-3.646l-1.548.061c-1.86-2.295-2.851-3.949-2.779-5.23l-.5.891c-.567-.973-6.843-8.607-3.587-6.83-.605-.553-1.409-.9-2.281-2.484l.663-.758c-1.567-2.016-2.884-4.6-2.784-5.461.836 1.129 1.416 1.34 1.99 1.533-3.957-9.818-4.179-.541-7.176-9.994l.634-.051c-.486-.732-.781-1.527-1.172-2.307l.276-2.75c-2.849-3.294-.797-14.006-.386-19.881.285-2.389 2.378-4.932 3.97-8.92l-.97-.167c1.854-3.234 10.586-12.988 14.63-12.486 1.959-2.461-.389-.009-.772-.629 4.303-4.453 5.656-3.146 8.56-3.947 3.132-1.859-2.688.725-1.203-.709 5.414-1.383 3.837-3.144 10.9-3.846.745.424-1.729.655-2.35 1.205 4.511-2.207 14.275-1.705 20.617 1.225 7.359 3.439 15.627 13.605 15.953 23.17l.371.1c-.188 3.802.582 8.199-.752 12.238l.908-1.912"
                style="fill:#a80030" transform="translate(10.582)" />
            <path
                d="m32.372 59.764-.252 1.26c1.181 1.604 2.118 3.342 3.626 4.596-1.085-2.118-1.891-2.993-3.374-5.856M35.164 59.654c-.625-.691-.995-1.523-1.409-2.352.396 1.457 1.207 2.709 1.962 3.982l-.553-1.63M84.568 48.916l-.264.662a31.959 31.959 0 0 1-3.131 9.994 31.401 31.401 0 0 0 3.395-10.656M45.527.537C46.742.092 48.514.293 49.803 0c-1.68.141-3.352.225-5.003.438l.727.099M2.872 23.219c.28 2.592-1.95 3.598.494 1.889 1.31-2.951-.512-.815-.494-1.889M0 35.215c.563-1.728.665-2.766.88-3.766-1.556 1.989-.716 2.413-.88 3.766"
                style="fill:#a80030" transform="translate(10.582)" />
        </svg><svg xml:space="preserve" viewBox="0.171 0.201 512 512" version="1.0" id="s4"
            xmlns="http://www.w3.org/2000/svg">
            <defs>
                <linearGradient id="ek">
                    <stop offset="0" style="stop-color:#411f5d;stop-opacity:1" />
                    <stop offset="1" style="stop-color:#5b2a85;stop-opacity:1" />
                </linearGradient>
                <linearGradient id="ej">
                    <stop offset="0" style="stop-color:#8381c5;stop-opacity:1" />
                    <stop style="stop-color:#7e55b3;stop-opacity:.99607843" offset=".566" />
                    <stop offset="1" style="stop-color:#a52ecb;stop-opacity:.99215686" />
                </linearGradient>
                <linearGradient id="ea">
                    <stop style="stop-color:#bab8db;stop-opacity:1" offset="0" />
                    <stop style="stop-color:#5955a9;stop-opacity:.99159664" offset="1" />
                </linearGradient>
                <linearGradient id="ei">
                    <stop offset="0" style="stop-color:#6376e6;stop-opacity:1" />
                    <stop offset=".501" style="stop-color:#222989;stop-opacity:1" />
                    <stop offset="1" style="stop-color:#00003d;stop-opacity:1" />
                </linearGradient>
                <linearGradient id="eh">
                    <stop offset="0" style="stop-color:#000;stop-opacity:1" />
                    <stop offset=".848" style="stop-color:#000;stop-opacity:.49803922" />
                    <stop offset="1" style="stop-color:#000;stop-opacity:0" />
                </linearGradient>
                <linearGradient id="eg">
                    <stop offset="0" style="stop-color:#000;stop-opacity:1" />
                    <stop offset="1" style="stop-color:#000;stop-opacity:0" />
                </linearGradient>
                <linearGradient id="ef">
                    <stop offset="0" style="stop-color:#000;stop-opacity:1" />
                    <stop offset="1" style="stop-color:#000;stop-opacity:0" />
                </linearGradient>
                <linearGradient id="ee">
                    <stop offset="0" style="stop-color:#282828;stop-opacity:1" />
                    <stop offset=".393" style="stop-color:gray;stop-opacity:1" />
                    <stop offset="1" style="stop-color:#d9d9d9;stop-opacity:1" />
                </linearGradient>
                <linearGradient id="ed">
                    <stop offset="0" style="stop-color:#2b2b2b;stop-opacity:1" />
                    <stop offset=".5" style="stop-color:#828383;stop-opacity:1" />
                    <stop offset="1" style="stop-color:#dadbdb;stop-opacity:1" />
                </linearGradient>
                <linearGradient id="ec">
                    <stop offset="0" style="stop-color:#b6b3d8;stop-opacity:1" />
                    <stop offset="1" style="stop-color:#b6b3d8;stop-opacity:0" />
                </linearGradient>
                <linearGradient id="eb">
                    <stop offset="0" style="stop-color:#000;stop-opacity:1" />
                    <stop offset="1" style="stop-color:#000;stop-opacity:0" />
                </linearGradient>
                <linearGradient y2="300.74" x2="236.614" y1="-161.851" x1="-122.202" spreadMethod="pad"
                    gradientTransform="matrix(.87386 0 0 .82818 246.008 250.281)" gradientUnits="userSpaceOnUse" id="em"
                    xlink:href="#ej" />
                <filter height="1.088" y="-.044" width="1.089" x="-.045" id="el"
                    style="color-interpolation-filters:sRGB">
                    <feGaussianBlur stdDeviation="8.785" />
                </filter>
            </defs>
            <path
                style="opacity:.40500004;fill:#211f46;fill-opacity:.99607843;stroke:#0a0b1b;stroke-width:8.53333378;stroke-miterlimit:4;stroke-dasharray:none;stroke-opacity:1"
                d="M491.67 257.76c0 131.794-105.76 238.634-236.222 238.634S19.226 389.554 19.226 257.759c0-131.794 105.76-238.635 236.222-238.635 130.461 0 236.221 106.84 236.221 238.635z"
                transform="matrix(.98685 0 0 .98685 3.034 2.525)" />
            <path
                d="M488.238 256.895c0 130.06-104.37 235.496-233.115 235.496-128.746 0-233.115-105.435-233.115-235.496 0-130.062 104.37-235.497 233.115-235.497 128.746 0 233.115 105.435 233.115 235.497z"
                style="opacity:1;fill-opacity:1;stroke-width:13.33816814;stroke-miterlimit:4;stroke-dasharray:none;stroke-opacity:1" />
            <path
                d="M175 422.31s19.739 1.397 45.132-.841c10.283-.906 49.326-4.741 78.516-11.143 0 0 35.59-7.617 54.63-14.633 19.923-7.342 30.764-13.573 35.644-22.403-.213-1.809 1.502-8.224-7.685-12.078-23.489-9.852-50.73-8.07-104.634-9.212-59.777-2.054-79.663-12.06-90.256-20.119-10.158-8.175-5.05-30.792 38.475-50.715 21.924-10.609 107.87-30.187 107.87-30.187-28.945-14.307-82.919-39.459-94.013-44.89-9.731-4.763-25.303-11.936-28.679-20.614-3.827-8.33 9.039-15.507 16.225-17.562 23.145-6.676 55.818-10.825 85.555-11.291 14.947-.234 17.373-1.196 17.373-1.196 20.625-3.421 34.202-17.532 28.545-39.879-5.078-22.81-31.862-36.214-57.314-31.573-23.968 4.37-81.738 21.15-81.738 21.15 71.408-.618 83.36.573 88.697 8.036 3.153 4.408-1.432 10.451-20.476 13.561-20.733 3.386-63.831 7.464-63.831 7.464-41.345 2.456-70.469 2.62-79.203 21.113-5.707 12.082 6.085 22.764 11.253 29.45 21.841 24.289 53.389 37.389 73.695 47.035 7.64 3.63 30.059 10.484 30.059 10.484-65.878-3.623-113.4 16.606-141.277 39.897-31.528 29.162-17.581 63.923 47.013 85.326 38.151 12.642 57.072 18.587 113.981 13.463 33.52-1.807 38.804-.732 39.139 2.019.47 3.872-37.232 13.491-47.524 16.46-26.186 7.553-94.828 22.805-95.172 22.879z"
                style="fill:#fff;fill-opacity:1;fill-rule:evenodd;stroke:#000;stroke-width:0;stroke-linecap:butt;stroke-linejoin:miter;stroke-miterlimit:4;stroke-dasharray:none;stroke-opacity:1" />
        </svg><svg viewBox="0 0 11.493 11.493" id="s5" xmlns="http://www.w3.org/2000/svg">
            <path
                d="M161.773 107.032a5.746 5.746 0 0 0-1.816 11.2c.288.052.392-.125.392-.277 0-.137-.005-.498-.008-.978-1.598.347-1.935-.77-1.935-.77-.262-.664-.638-.84-.638-.84-.522-.357.04-.35.04-.35.576.04.88.592.88.592.512.878 1.344.625 1.672.478.052-.372.2-.625.365-.768-1.276-.145-2.618-.639-2.618-2.84 0-.628.224-1.14.592-1.543-.06-.145-.257-.73.056-1.52 0 0 .482-.155 1.58.589.458-.128.95-.192 1.439-.194.488.002.98.066 1.438.194 1.098-.744 1.58-.59 1.58-.59.313.792.115 1.376.056 1.521.369.402.591.915.591 1.542 0 2.208-1.344 2.694-2.624 2.836.207.177.39.528.39 1.064 0 .768-.007 1.388-.007 1.577 0 .153.104.332.395.276a5.749 5.749 0 0 0-1.82-11.199"
                style="fill:#1b1817;fill-opacity:1;fill-rule:evenodd;stroke:none;stroke-width:.352777"
                transform="translate(-156.027 -106.892)" />
        </svg><svg xml:space="preserve" style="clip-rule:evenodd;fill-rule:evenodd;stroke-linejoin:round"
            viewBox="0 0 223.027 223.027" id="s6" xmlns="http://www.w3.org/2000/svg">
            <path
                d="M145.932 115.67a18 18 0 0 0 18.064-17.998c.002-18.273.002-46.51.002-64.833a18 18 0 0 0-18-18H131.16a4 4 0 0 1-4-4v-9.43H10.13l.295 138.213a4.001 4.001 0 0 0 1.85 3.365c5.212 3.018 21.921 8.75 57.004 8.75 35.825 0 51.839-7.674 56.424-11.139a3.979 3.979 0 0 0 1.438-3.062c.019-3.825.019-12.688.019-17.924a3.999 3.999 0 0 1 4.083-3.999c4.401.062 9.674.071 14.689.057zM127.16 35.864c0-1.326.527-2.598 1.464-3.536a5.004 5.004 0 0 1 3.536-1.464h12.738c1.326 0 2.598.527 3.536 1.464a5.004 5.004 0 0 1 1.464 3.536v58.185a5.004 5.004 0 0 1-1.464 3.536 5.004 5.004 0 0 1-3.536 1.464H132.16a5.004 5.004 0 0 1-3.536-1.464 5.004 5.004 0 0 1-1.464-3.536z"
                style="fill:#fff;fill-rule:nonzero;stroke:#000;stroke-width:4.78999996"
                transform="translate(31.241 68.895)" />
            <path
                d="M21.667.249v123.986c0 1.431.764 2.753 2.003 3.467 5.061 2.412 19.743 8.169 45.484 8.169 25.912 0 40.158-6.995 44.928-9.878a3.987 3.987 0 0 0 1.827-3.351c.011-16.441.011-122.393.011-122.393Z"
                style="fill:#fbb040" transform="translate(31.241 68.895)" />
            <path d="M35.521.249v112.816" transform="matrix(1 0 0 .84931 31.241 89.932)"
                style="fill:none;stroke:#ffdb96;stroke-width:11.96000004;stroke-linecap:round;stroke-linejoin:miter" />
            <path
                d="M43.739 73.505c2.473-4.998 7.628-8.088 13.574-8.44 7.167-.424 11.167 4.197 11.167 3.787 0-11.012 8.928-19.938 19.941-19.938 11.014 0 19.936 8.926 19.936 19.938 0 .113 4.241-4.967 10.965-4.783 7.924.217 14.355 6.427 14.355 14.355 0 4.103-4.236 10.728-4.236 10.728a15.073 15.073 0 0 1 7.432-1.957 15.09 15.09 0 0 1 9.59 3.421 15.119 15.119 0 0 1 5.708 11.851c0 7.666-5.691 14.001-13.079 15.012a22.339 22.339 0 0 0-4.891 1.27c-4.391 1.655-8.881 3.027-13.417 4.159a16.66 16.66 0 0 1-1.909 6.231 20.723 20.723 0 0 0-2.38 11.257c-.002.236.007 1.472.007 1.71 0 4.956-4.016 7.972-8.976 7.972a8.971 8.971 0 0 1-8.971-8.972c0-2-1.177-4.388-3.11-5.587a16.564 16.564 0 0 1-1.3-.873 16.842 16.842 0 0 1-5.746-7.424c-25.55.846-48.861-3.64-60.612-6.809a98.218 98.218 0 0 0-9.171-2.13 15.439 15.439 0 0 1-7.83-4.151 15.112 15.112 0 0 1-4.713-10.985c0-8.245 6.581-14.952 14.781-15.149-6.472-5.418.795-18.648 11.537-19.148 5.566-.259 11.348 4.655 11.348 4.655z"
                transform="translate(21.46 -46.519)"
                style="fill:#fff;stroke:#000;stroke-width:4.78999996;stroke-linecap:round" />
        </svg><svg viewBox="0 0 40 40" id="s7" xmlns="http://www.w3.org/2000/svg">
            <linearGradient id="ha">
                <stop stop-color="#2a7fff" offset="0" />
                <stop stop-color="#0cf" offset="1" />
            </linearGradient>
            <linearGradient id="he" x1="80.723" x2="141.405" y1="192.156" y2="252.838" gradientUnits="userSpaceOnUse">
                <stop stop-color="#0055d4" offset="0" />
                <stop stop-color="#06f" stop-opacity="0" offset="1" />
            </linearGradient>
            <linearGradient id="hf" x1="61.163" x2="64.928" y1="105.11" y2="109.045" gradientUnits="userSpaceOnUse">
                <stop stop-color="#e6e6e6" offset="0" />
                <stop stop-color="#b3b3b3" offset="1" />
            </linearGradient>
            <linearGradient id="hg" x1="77.167" x2="64.372" y1="115.715" y2="112.004" gradientUnits="userSpaceOnUse">
                <stop stop-color="#0cf" offset="0" />
                <stop stop-color="#2a7fff" offset="1" />
            </linearGradient>
            <linearGradient id="hh" x1="68.707" x2="75.819" y1="113.065" y2="117.913" gradientUnits="userSpaceOnUse"
                xlink:href="#ha" />
            <linearGradient id="hb">
                <stop stop-color="#fff" offset="0" />
                <stop stop-color="#b3b3b3" offset="1" />
            </linearGradient>
            <linearGradient id="hi" x1="77.401" x2="68.67" y1="106.368" y2="120.358" gradientUnits="userSpaceOnUse"
                xlink:href="#hb" />
            <linearGradient id="hj" x1="68.229" x2="68.164" y1="112.732" y2="118.555" gradientUnits="userSpaceOnUse">
                <stop stop-color="#b3b3b3" offset="0" />
                <stop stop-color="#fff" offset="1" />
            </linearGradient>
            <linearGradient id="hk" x1="63.367" x2="71.136" y1="106.865" y2="104.89" gradientUnits="userSpaceOnUse"
                xlink:href="#hb" />
            <linearGradient id="hl" x1="66.951" x2="66.336" y1="104.461" y2="109.668" gradientUnits="userSpaceOnUse">
                <stop stop-color="#ccc" offset="0" />
                <stop stop-color="#b3b3b3" offset="1" />
            </linearGradient>
            <linearGradient id="hm" x1="62.961" x2="77.488" y1="115.883" y2="107.314" gradientUnits="userSpaceOnUse">
                <stop stop-color="#e6e6e6" offset="0" />
                <stop stop-color="#fff" offset="1" />
            </linearGradient>
            <linearGradient id="hd" x1="220.306" x2="54.439" y1="207.919" y2="42.052"
                gradientTransform="matrix(.44648 0 0 .4348 59.665 148.26)" gradientUnits="userSpaceOnUse"
                xlink:href="#ha" />
            <linearGradient id="hc" x1="68.21" x2="148.521" y1="177.751" y2="258.061" gradientUnits="userSpaceOnUse">
                <stop stop-color="#59f" offset="0" />
                <stop stop-color="#06f" offset="1" />
            </linearGradient>
            <g transform="matrix(.35834 0 0 .35834 -18.589 -57.834)">
                <circle cx="107.687" cy="217.206" r="55.812" style="stroke-width:.046091" />
                <ellipse cx="107.687" cy="215.745" rx="55.812" ry="54.351" style="stroke-width:.045484" />
                <path
                    d="M104.428 173.439c-3.175 21.389-11.197 24.897-26.928 45.509l4.507 10.666 38.212 38.213a55.812 55.812 0 0 0 43.28-50.621l-42.761-42.762z"
                    style="stroke-width:.046091" />
                <g style="stroke-width:.26458299">
                    <path
                        d="M65.429 109.92c-.795-2.581-5.286-1.955-6.037-2.011.843-.41 1.604-.747 3.341-1.977 3.347-2.372 6.89-1.855 8.664-.913-4.85.18-3.927 2.765-3.212 4.127-.909.258-2.343.648-2.756.773z"
                        transform="matrix(4.54758 0 0 4.64898 -203.944 -313.788)" />
                    <path
                        d="M77.401 106.368c-1.746 2.257-4.65 5.306-7.828 5.707-3.178.402-6.208-.043-6.91 2.272-.647 2.133 1.627 4.123 3.984 3.644 2.52-.513 1.975-3.306.598-5.207 1.046-.059.851-.044 2.626-.131 2.645 2.205 3.522 2.834 8.143 6.052-3.561-.365-4.857-.7-7.411-2.194.661 1.624 2.075 5.311 2.382 8.172-1.473-2.07-2.032-2.831-4.315-4.325-2.924-1.914-5.293-1.978-6.664-4.797-1.367-2.814.443-4.84 3.683-5.717 4.63-1.255 8.62-2.444 11.712-3.476z"
                        transform="matrix(4.54758 0 0 4.64898 -203.944 -313.788)" />
                    <path
                        d="M67.245 112.784c1.046-.059.851-.044 2.626-.131 2.645 2.205 3.522 2.834 8.143 6.052-4.645-.325-8.16-1.665-10.77-5.921z"
                        transform="matrix(4.54758 0 0 4.64898 -203.944 -313.788)" />
                    <path
                        d="M77.401 106.368c-1.746 2.257-4.65 5.306-7.828 5.707-3.178.402-6.208-.043-6.91 2.272-.647 2.133 1.627 4.123 3.984 3.644 2.52-.513 1.975-3.306.598-5.207 1.046-.059.851-.044 2.626-.131 2.645 2.205 3.522 2.834 8.143 6.052-3.561-.365-4.857-.7-7.411-2.194.661 1.624 2.075 5.311 2.382 8.172-1.473-2.07-2.032-2.831-4.315-4.325-2.924-1.914-5.293-1.978-6.664-4.797-1.367-2.814.443-4.84 3.683-5.717 4.63-1.255 8.62-2.444 11.712-3.476z"
                        transform="matrix(4.54758 0 0 4.64898 -203.944 -313.788)" />
                    <path
                        d="M67.245 112.784c1.046-.059.851-.044 2.626-.131 2.645 2.205 3.522 2.834 8.143 6.052-4.645-.325-8.16-1.665-10.77-5.921z"
                        transform="matrix(4.54758 0 0 4.64898 -203.944 -313.788)" />
                    <path
                        d="M59.392 107.909c.843-.41 1.604-.747 3.341-1.977 3.347-2.372 6.89-1.855 8.664-.913-4.85.18-4.226 1.126-4.244 1.867-3.222-.665-4.163.24-7.76 1.023z"
                        transform="matrix(4.54758 0 0 4.64898 -203.944 -313.788)" />
                    <path
                        d="M71.397 105.02c-4.85.18-3.927 2.764-3.212 4.126-.566.161-1.18.344-1.936.54-3.053-5.321 2.656-6.013 5.148-4.667z"
                        transform="matrix(4.54758 0 0 4.64898 -203.944 -313.788)" />
                    <path
                        d="M62.88 116.886c-2.374-2.99-1.935-5.73 2.712-7.153 4.587-1.405 8.716-2.333 11.81-3.365-8.348 3.111-18.8 5.19-14.522 10.518z"
                        transform="matrix(4.54758 0 0 4.64898 -203.944 -313.788)" />
                </g>
            </g>
        </svg><svg viewBox="0 0 709.861 709.861" id="s8" xmlns="http://www.w3.org/2000/svg">
            <defs>
                <linearGradient id="ia">
                    <stop offset="0" style="stop-color:#fefefc;stop-opacity:1" />
                    <stop style="stop-color:#fefefc;stop-opacity:1" offset=".757" />
                    <stop offset="1" style="stop-color:#d4d4d4;stop-opacity:1" />
                </linearGradient>
                <linearGradient id="ib">
                    <stop offset="0" style="stop-color:#fefefc;stop-opacity:1" />
                    <stop style="stop-color:#fefefc;stop-opacity:1" offset=".757" />
                    <stop offset="1" style="stop-color:#d4d4d4;stop-opacity:1" />
                </linearGradient>
                <linearGradient id="ic">
                    <stop style="stop-color:#3e2a06;stop-opacity:1" offset="0" />
                    <stop style="stop-color:#ad780a;stop-opacity:1" offset="1" />
                </linearGradient>
                <linearGradient xlink:href="#ic" id="if" gradientUnits="userSpaceOnUse"
                    gradientTransform="matrix(.87491 0 0 .81149 60.367 62.587)" x1="442.039" y1="371.544" x2="490.122"
                    y2="293.585" />
                <linearGradient xlink:href="#ic" id="ie" gradientUnits="userSpaceOnUse" x1="442.039" y1="371.544"
                    x2="490.122" y2="293.585" />
                <linearGradient xlink:href="#ic" id="id" gradientUnits="userSpaceOnUse" x1="442.039" y1="371.544"
                    x2="490.122" y2="293.585" />
                <radialGradient r="14.572" fy="137.661" fx="223.196" cy="137.661" cx="223.196"
                    gradientTransform="matrix(1.08578 -.03431 .03944 1.24799 -154.542 -26.543)"
                    gradientUnits="userSpaceOnUse" id="ih" xlink:href="#ia" />
                <radialGradient r="14.572" fy="137.661" fx="223.196" cy="137.661" cx="223.196"
                    gradientTransform="matrix(.81524 -.03431 .02961 1.24799 -129.437 -26.543)"
                    gradientUnits="userSpaceOnUse" id="ig" xlink:href="#ib" />
            </defs>
            <path style="fill:#282828;fill-opacity:1;fill-rule:evenodd"
                d="M-330.399-790.238c-19.356 38.26-32.097 85.297-33.206 142.998-4.704 244.744 10.65 206.892 1.175 319.197-3.487 41.33-21.84 103.309-51.979 163.8-34.457 69.16-80.004 123.311-106.76 163.065-54.746 81.343-107.606 151.78-147.498 232.596-22.67 45.926-38.958 110.492-46.035 156.914-4.73 31.031-5.28 71.154-4.22 108.756-28.055 24.373-42.465 65.424-71.293 96.72-18.594 20.138-54.536 26.679-94.37 34.394-34.175 6.541-70.336 19.844-82.977 40.203a76.272 76.272 0 0 0-3.858 7.047c-28.783 55.417 6.444 150.53-10.737 220.89-7.275 29.913-19.697 58.062-19.918 83.86-.075 13.303 2.939 27.414 12.2 43.436 10.143 17.64 32.413 30.207 64.09 41.158 29.547 10.217 67.913 19.184 112.525 29.694l15.435 3.601c20.064 4.779 40.055 9.555 60.267 13.598 13.156 2.72 20.8 4.042 27.34 5.219 28.442 5.07 39.246 7.055 115.096 36.674 18.301 7.13 38.585 14.773 60.047 21.314 42.407 13.156 90.328 22.71 134.574 14.7 22.418-4.042 43.584-12.569 62.399-27.267 19.477-15.213 38.218-35.72 51.522-56.519 3.556-5.546 6.844-11.288 9.724-17.196 2.523-4.987 4.763-10.096 6.633-15.31 1.783-4.754 3.269-9.685 4.351-14.636 17.846-8.898 62.007-22.326 167.15-23.343 158.46-1.544 264.001 55.638 264.001 55.638l.075-1.175c1.323 7.497 2.94 14.478 4.999 21.166 3.014 9.775 7.055 18.742 12.494 27.415 5.513 8.6 12.348 16.757 21.02 24.77 9.408 8.672 20.727 16.684 33.663 23.52 12.053 6.32 25.577 11.611 40.423 15.507 13.523 3.529 28.149 5.88 43.657 6.615 14.48.735 29.618.074 45.421-2.204 26.68-3.822 47.258-12.274 64.97-23.225 17.273-10.657 31.384-23.446 45.79-36.528l.441-.367c9.482-8.6 19.11-17.345 29.767-25.357a1686.426 1686.426 0 0 0 19.918-15.213c9.26-7.13 14.406-11.172 19.624-15.288 15.656-12.274 31.823-25.063 47.994-37.117 16.757-12.42 34.542-25.062 53.873-37.409a6479.745 6479.745 0 0 0 46.891-30.426c16.317-10.732 33.368-21.976 49.463-33 28.75-19.527 68.426-43.73 83.457-75.166 5.02-9.725 7.716-20.149 6.986-31.354-2.351-35.94-44.906-68.352-82.536-100.545-18.301-15.728-36.749-31.309-46.376-47.258-7.79-12.861-17.2-32.265-19.844-46.377-7.428-39.131-7.27-68.365-25.797-94.214-17.004-23.722-31.866-30.546-58.073-33.507-3.928-.443-7.621-.995-11.201-1.577 17.025-62.68 21.907-102.475 18.792-154.981-7.115-119.948-82.468-246.89-180.94-391.486-33.21-48.764-72.066-99.195-99.668-142.43-31.977-50.086-65.286-108.015-78.122-160.648-9.664-39.63-13.771-114.43-15.09-239.005 4.704-190.872-54.388-278.994-125.9-333.97-71.513-54.976-176.467-54.094-214.318-50.787l-.001-.001c-31.734 2.767-165.226 34.788-227.529 160.422z"
                transform="translate(382.153 312.717) scale(.32847)" />
            <path style="fill:#fcc624;fill-rule:evenodd"
                d="M-806.048 629.3c-37.606 18.069-124.2 17.701-145.207 53.692-23.063 39.587-8.152 83.437-7.932 133.97.074 35.768-.515 75.579-15.57 117.958-12.34 34.888-16.527 47.227 1.174 77.929 17.7 30.775 94.527 45.538 198.456 70.364 104.002 24.753 70.877 6.464 187.293 51.928 72.126 28.203 173.925 62.798 239.881 11.311 24.312-19.024 64.193-62.063 66.618-104.002 1.396-23.945-.809-49.505-6.537-65.002-19.023-51.711-57.069-73.818-93.204-127.876-66.178-100.404-136.468-195.592-192.656-279.177-39.662-59.125-71.538-73.448-98.495-68.748-82.85 14.616-56.113 90.34-133.822 127.654zM247.763 543.819c-36.493 25.78-28.59 103.053-30.73 143.756-3.251 62.275-3.695 131.716-5.836 159.344-3.547 45.726-38.193 149-33.98 197.757 4.136 48.683 7.681 77.197 37.97 105.121 30.36 27.924 83.77 48.756 149.739 39.226 65.968-9.53 90.936-50.53 133.71-82.59 42.698-32.06 86.653-70.105 143.091-106.303 56.438-36.271 147.303-95.666 160.378-111.695 13.076-16.104 21.94-29.992 12.485-51.12-9.382-21.128-42.328-53.78-78.305-83.477-93.818-77.567-53.315-149.668-92.488-187.785-11.952-12.876-20.833-19.973-34.704-22.797-74.875-15.25-95.445 14.16-139.41 9.84-47.406-4.659-29.584 5.763-126.899-7.223-33.498-3.805-71.897-17.069-95.021-2.057zM-310.717-315.633c.848.896.532 2.483 1.474 3.421 11.084 11.04 23.903 21.86 35.08 34.52 12.85 14.559 24.626 30.842 35.564 40.82 20.11 18.347 39.216 28.151 67.128 31.596 53.904 6.653 94.206-8.294 139.664-38.274 21.388-14.111 51.007-40.129 68.132-52.992C64.841-318.003 73-316.313 81.452-327.116c8.747-11.244 13.009-40.643 10.437-54.534-2.058-10.731-5.807-17.86-17.42-25.21-12.936-8.157-35.205-16.756-73.79-29.838l-.073-.073c-19.745-7.216-40.088-14.487-57.585-21.165-39.174-15.214-64.698-26.74-100.323-23.888-16.383 1.312-32.51 4.831-46.379 10.216v.072c-26.095 10.977-51.35 27.857-72.077 42.375-18.227 12.716-36.896 29.62-47.7 46.966-6.404 10.264-16.54 31.442-7.085 43.618.025.031 24.15 12.39 48.366 26.71 39.15 23.15 83.87 35.107 123.797 32.883 31.757-1.769 67.204-11.799 92.8-24.119 25.76-12.4 57.435-31.955 88.31-55.777 4.777-3.529 13.879-12.466 19.569-15.162 5.017-2.377 21.19-.998 20.448 4.494-.582 4.301-19.575 11.978-26.422 17.063-33.773 25.084-71.375 49.653-95.814 60.917-25.25 11.637-67.746 25.074-96.468 26.769-26.24 1.548-48.521-1.363-71.331-9.076-22.054-7.457-35.127-13.932-58.608-27.493-7.488-4.326-14.688-7.936-24.823-14.265z"
                transform="translate(382.153 312.717) scale(.32847)" />
            <path transform="translate(329.598 200.17) scale(.32847)"
                d="M168.861-303.748c-43.022-.509-84.568 32.869-98.226 77.861-11.312 37.535-10.8 67.358-8.963 83.666v.002c12.636 3.82 25.782 8.817 40.842 14.62-9.33-21.01-8.666-48.263 3.674-70.74 17.63-32.248 52.521-42.606 77.937-23.065 25.343 19.538 31.66 61.483 13.957 93.73-6.392 11.68-15.06 20.494-24.756 26.076 16.821 5.803 30.338 10.724 41.283 15.205 14.12-17.924 32.817-46.517 40.696-70.959 12.818-39.768 2.94-110.33-50.537-137.51-11.698-5.944-23.86-8.744-35.907-8.886zm-281.298 19.137c-6.854-.013-14.19 1.268-22.018 4h-.002c-33.936 11.825-46.865 68.902-34.89 120.615 6.61 28.5 18.289 55.605 35.699 72.428 3.599-2.79 7.27-5.509 10.945-8.006a458.48 458.48 0 0 1 8.52-5.951c-21.964-10.724-36.433-43.999-32.614-76.246 3.967-33.57 26.297-53.403 49.877-44.221 23.58 9.182 39.445 43.927 35.479 77.496-.513 4.407-1.32 8.594-2.422 12.488 6.977-3.6 13.294-6.464 19.172-8.742 1.47-.587 2.863-1.177 4.26-1.617 2.203-16.895 1.91-35.333-1.764-53.772-10.29-50.635-33.232-88.406-70.243-88.472zM244.358 29.89c-8.08 4.186-22.185 10.063-43.709 26.738-15.645 12.194-44.585 37.537-66.77 52.889-14.484 10.028-30.338 18.698-45.935 25.488-22.445 9.774-44.357 15.654-60.87 16.088-59.198 3.13-87.357-11.531-114.346-39.658-11.321-11.798-19.897-24.723-34.178-40.495-6.327-6.986-15.081-16.27-24.008-22.648-.243 7.752-25.095 173.206-58.543 246.35-33.448 73.143-31.807 48.29-54.285 124.744-31.217 28.326-65.44 104.43-87.97 169.94-23.244 76.907-40.855 136.21-42.31 222.357-11.616-23.154-19.972-48.063-23.255-75.157-11.571-95.142 13.617-208.624 88.81-290.318 3.184-3.459 3.117-4.873 1.705-4.783-1.098.07-3.011 1.049-4.843 2.683-93.908 83.787-116.236 238.326-106.579 307.375 6.905 49.366 19.783 91.96 45.987 126.588l.015.256c.443.505.895.998 1.342 1.496a183.084 183.084 0 0 0 23.436 24.99l.002.002c15.339 16.936 34.49 35.421 73.494 65.065 71.78 54.552 122.083 83.356 131.982 118.832 13.177 47.224-16.358 78.454-53.185 97.656 26.927 26.941 112.884 82.136 269.63 75.238 138.043-6.074 224.61-58.318 298.504-148.459.473-20.742 2.743-55.452 3.77-92.92.98-35.782 1.188-71.615 6.664-99.406 1.29-6.54 3.757-12.734 5.965-18.181 9.015-22.239 33.279-37.389 56.498-38.48 12.207-.575 25.02-1.458 37.271 1.083 2.265-17.696 4.026-34.717 5.264-51.263 15.818-4.587 43.636-8.915 77.055-10.03 51.782-1.727 113.808 3.105 145.129 22.746-6.978-6.103-15.53-11.487-24.639-15.845-36.643-17.535-86.831-23.434-137.986-25.024 13.67-36.29 27.8-88.342 26.302-127.281-3.931-102.202-54.734-180.925-127.136-235.684-1.8-1.36-3.551-2.392-4.23-2.494-.68-.102-.288.726 2.206 3.088C514.46 502.825 542.486 593.218 535.5 680.93c-2.727 34.232-17.582 73.036-34.582 104.39-7.966-.013-17.363.402-25.4.545 4.062-107.43-17.058-197.562-76.94-323.047-5.73-10.87-33.136-56.977-49.496-69.99-12.785-62.548-14.47-59.48-40.047-116.74-38.79-86.839-52.849-187.212-64.676-246.197z"
                style="fill:#f5f5f5;fill-rule:evenodd" />
            <path style="fill:#282828;fill-opacity:1;fill-rule:evenodd"
                d="M552.043 533.169c1.29-2.421 3.901-12.131 4.099-14.103 4.934-49.172-90.721-60.236-165.175-57.753-33.784 1.127-60.114 5.112-75.838 9.754-27.394 8.087-40.882 26.64-43.917 49.85-6.144 46.986 7.799 146.245 54.42 167.961 48.21 22.457 121.219-9.598 164.317-57.95 29.184-32.74 47.768-70.858 62.094-97.76zM-180.555-456.538c-3.16-4.703-16.318-2.279-22.638 0-6.248 2.352-11.099 9.188-8.525 13.818 1.322 2.352 4.189 3.529 6.393 3.087 3.381-.735 6.983-4.484 11.54-7.938 4.85-3.748 11.906-7.055 13.228-8.967zM-139.692-456.39c-1.912-1.985 21.388-6.763 30.574.44 9.26 7.203 8.672 12.861 5.88 15.875-2.94 3.087-30.06-13.744-36.454-16.317z"
                transform="translate(382.153 312.717) scale(.32847)" />
        </svg><svg xml:space="preserve" viewBox="0 0 19 19" id="s9" xmlns="http://www.w3.org/2000/svg">
            <path
                d="M18.1 24.227c-.106.307-.217.6-.335.881a10.338 10.338 0 0 1-1.022 1.836c-.536.766-.976 1.296-1.315 1.59-.525.483-1.088.731-1.691.744-.433 0-.954-.123-1.562-.372-.609-.249-1.169-.372-1.681-.372-.537 0-1.113.123-1.729.372-.617.249-1.114.38-1.494.392-.578.025-1.154-.229-1.729-.764-.367-.32-.826-.869-1.376-1.646-.59-.83-1.075-1.793-1.455-2.891-.407-1.185-.611-2.333-.611-3.444 0-1.273.275-2.371.826-3.291a4.846 4.846 0 0 1 1.73-1.75 4.654 4.654 0 0 1 2.339-.66c.459 0 1.061.142 1.809.421.746.28 1.225.422 1.435.422.157 0 .689-.166 1.591-.497.853-.307 1.573-.434 2.163-.384 1.598.129 2.798.759 3.597 1.894-1.429.866-2.136 2.079-2.122 3.635.013 1.212.452 2.221 1.316 3.022.392.371.83.658 1.316.862zm-4.02-13.922c.013.127.019.254.019.38 0 .95-.347 1.837-1.038 2.658-.835.976-1.845 1.54-2.94 1.451a2.95 2.95 0 0 1-.022-.36c0-.912.397-1.888 1.102-2.686.352-.404.8-.74 1.342-1.008.542-.264 1.055-.41 1.537-.435z"
                style="fill:#050505" transform="translate(-.6 -10.3)" />
        </svg></defs>
</svg>
